<svg width="164" height="24" viewBox="0 0 164 24" fill="none" xmlns="http://www.w3.org/2000/svg">
<rect x="0.5" y="0.5" width="163" height="23" fill="#1C1E1C"/>
<path d="M8.73242 8.3418H11.5938C12.1602 8.3418 12.5817 8.36621 12.8584 8.41504C13.1383 8.46061 13.3874 8.55827 13.6055 8.70801C13.8268 8.85775 14.0107 9.05794 14.1572 9.30859C14.3037 9.55599 14.377 9.83431 14.377 10.1436C14.377 10.4788 14.2858 10.7865 14.1035 11.0664C13.9245 11.3464 13.6803 11.5563 13.3711 11.6963C13.8073 11.8232 14.1426 12.0397 14.377 12.3457C14.6113 12.6517 14.7285 13.0114 14.7285 13.4248C14.7285 13.7503 14.652 14.0677 14.499 14.377C14.3493 14.6829 14.1426 14.9287 13.8789 15.1143C13.6185 15.2965 13.2962 15.4089 12.9121 15.4512C12.6712 15.4772 12.0902 15.4935 11.1689 15.5H8.73242V8.3418ZM10.1777 9.5332V11.1885H11.125C11.6882 11.1885 12.0381 11.1803 12.1748 11.1641C12.4222 11.1348 12.6159 11.0501 12.7559 10.9102C12.8991 10.7669 12.9707 10.5798 12.9707 10.3486C12.9707 10.1273 12.9089 9.94824 12.7852 9.81152C12.6647 9.67155 12.484 9.58691 12.2432 9.55762C12.0999 9.54134 11.6882 9.5332 11.0078 9.5332H10.1777ZM10.1777 12.3799V14.2939H11.5156C12.0365 14.2939 12.3669 14.2793 12.5068 14.25C12.7217 14.2109 12.8958 14.1165 13.0293 13.9668C13.166 13.8138 13.2344 13.6104 13.2344 13.3564C13.2344 13.1416 13.1823 12.9593 13.0781 12.8096C12.974 12.6598 12.8226 12.5508 12.624 12.4824C12.4287 12.4141 12.0023 12.3799 11.3447 12.3799H10.1777ZM24.8213 15.5H23.249L22.624 13.874H19.7627L19.1719 15.5H17.6387L20.4268 8.3418H21.9551L24.8213 15.5ZM22.1602 12.668L21.1738 10.0117L20.207 12.668H22.1602ZM32.585 12.8682L33.9863 13.3125C33.7715 14.0938 33.4134 14.6748 32.9121 15.0557C32.4141 15.4333 31.7809 15.6221 31.0127 15.6221C30.0622 15.6221 29.2809 15.2982 28.6689 14.6504C28.057 13.9993 27.751 13.1107 27.751 11.9844C27.751 10.793 28.0586 9.86849 28.6738 9.21094C29.2891 8.55013 30.098 8.21973 31.1006 8.21973C31.9762 8.21973 32.6875 8.47852 33.2344 8.99609C33.5599 9.30208 33.804 9.74154 33.9668 10.3145L32.5361 10.6562C32.4515 10.2852 32.2741 9.99219 32.0039 9.77734C31.737 9.5625 31.4115 9.45508 31.0273 9.45508C30.4967 9.45508 30.0654 9.64551 29.7334 10.0264C29.4046 10.4072 29.2402 11.0241 29.2402 11.877C29.2402 12.7819 29.403 13.4264 29.7285 13.8105C30.054 14.1947 30.4772 14.3867 30.998 14.3867C31.3822 14.3867 31.7126 14.2646 31.9893 14.0205C32.266 13.7764 32.4645 13.3923 32.585 12.8682ZM38.0342 15.5V8.3418H39.4795V11.5205L42.3994 8.3418H44.3428L41.6475 11.1299L44.4893 15.5H42.6191L40.6514 12.1406L39.4795 13.3369V15.5H38.0342ZM55.2021 15.5V9.55273H53.0781V8.3418H58.7666V9.55273H56.6475V15.5H55.2021ZM62.1943 11.9648C62.1943 11.2357 62.3034 10.6237 62.5215 10.1289C62.6842 9.76432 62.9056 9.43717 63.1855 9.14746C63.4688 8.85775 63.778 8.6429 64.1133 8.50293C64.5592 8.31413 65.0736 8.21973 65.6562 8.21973C66.7109 8.21973 67.554 8.54688 68.1855 9.20117C68.8203 9.85547 69.1377 10.7653 69.1377 11.9307C69.1377 13.0863 68.8236 13.9912 68.1953 14.6455C67.5671 15.2965 66.7272 15.6221 65.6758 15.6221C64.6113 15.6221 63.765 15.2982 63.1367 14.6504C62.5085 13.9993 62.1943 13.1042 62.1943 11.9648ZM63.6836 11.916C63.6836 12.7266 63.8708 13.3418 64.2451 13.7617C64.6195 14.1784 65.0947 14.3867 65.6709 14.3867C66.2471 14.3867 66.7191 14.18 67.0869 13.7666C67.458 13.3499 67.6436 12.7266 67.6436 11.8965C67.6436 11.0762 67.4629 10.4642 67.1016 10.0605C66.7435 9.6569 66.2666 9.45508 65.6709 9.45508C65.0752 9.45508 64.5951 9.66016 64.2305 10.0703C63.8659 10.4772 63.6836 11.0924 63.6836 11.916ZM78.6592 15.5V8.40039H80.1045V14.2939H83.6982V15.5H78.6592ZM87.2871 15.5V8.3418H88.7324V15.5H87.2871ZM92.5312 13.1709L93.9375 13.0342C94.0221 13.5062 94.193 13.8529 94.4502 14.0742C94.7106 14.2956 95.0605 14.4062 95.5 14.4062C95.9655 14.4062 96.3154 14.3086 96.5498 14.1133C96.7874 13.9147 96.9062 13.6836 96.9062 13.4199C96.9062 13.2507 96.8558 13.1074 96.7549 12.9902C96.6572 12.8698 96.4847 12.7656 96.2373 12.6777C96.068 12.6191 95.6823 12.515 95.0801 12.3652C94.3053 12.1732 93.7617 11.9372 93.4492 11.6572C93.0098 11.2633 92.79 10.7832 92.79 10.2168C92.79 9.85221 92.8926 9.51204 93.0977 9.19629C93.306 8.87728 93.6038 8.63477 93.9912 8.46875C94.3818 8.30273 94.8522 8.21973 95.4023 8.21973C96.3008 8.21973 96.9762 8.41667 97.4287 8.81055C97.8844 9.20443 98.1237 9.73014 98.1465 10.3877L96.7012 10.4512C96.6393 10.0833 96.5059 9.81966 96.3008 9.66016C96.099 9.4974 95.7946 9.41602 95.3877 9.41602C94.9678 9.41602 94.639 9.50228 94.4014 9.6748C94.2484 9.78548 94.1719 9.93359 94.1719 10.1191C94.1719 10.2884 94.2435 10.4333 94.3867 10.5537C94.569 10.7067 95.0117 10.8662 95.7148 11.0322C96.418 11.1982 96.9372 11.3708 97.2725 11.5498C97.611 11.7256 97.8747 11.9681 98.0635 12.2773C98.2555 12.5833 98.3516 12.9626 98.3516 13.415C98.3516 13.8252 98.2376 14.2093 98.0098 14.5674C97.7819 14.9255 97.4596 15.1924 97.043 15.3682C96.6263 15.5407 96.1071 15.627 95.4854 15.627C94.5804 15.627 93.8854 15.4186 93.4004 15.002C92.9154 14.582 92.6257 13.9717 92.5312 13.1709ZM103.962 15.5V9.55273H101.838V8.3418H107.526V9.55273H105.407V15.5H103.962ZM111.203 15.5V8.3418H112.648V15.5H111.203ZM116.828 15.5V8.3418H118.234L121.164 13.1221V8.3418H122.507V15.5H121.057L118.171 10.832V15.5H116.828ZM130.153 12.8682V11.6621H133.269V14.5137C132.966 14.8066 132.526 15.0654 131.95 15.29C131.377 15.5114 130.796 15.6221 130.207 15.6221C129.458 15.6221 128.806 15.4658 128.249 15.1533C127.692 14.8376 127.274 14.3883 126.994 13.8057C126.714 13.2197 126.574 12.5833 126.574 11.8965C126.574 11.151 126.73 10.4886 127.043 9.90918C127.355 9.32975 127.813 8.88542 128.415 8.57617C128.874 8.33854 129.445 8.21973 130.129 8.21973C131.018 8.21973 131.711 8.4069 132.209 8.78125C132.71 9.15234 133.033 9.66667 133.176 10.3242L131.74 10.5928C131.639 10.2412 131.449 9.96452 131.169 9.7627C130.892 9.55762 130.546 9.45508 130.129 9.45508C129.497 9.45508 128.994 9.65527 128.62 10.0557C128.249 10.4561 128.063 11.0501 128.063 11.8379C128.063 12.6875 128.252 13.3255 128.63 13.752C129.007 14.1751 129.502 14.3867 130.114 14.3867C130.417 14.3867 130.72 14.3281 131.022 14.2109C131.328 14.0905 131.59 13.9456 131.809 13.7764V12.8682H130.153Z" fill="#C2D6C2"/>
<g clip-path="url(#clip0_272_659)">
<path d="M154.667 6H144.667C144.207 6 143.847 6.23333 143.607 6.58667L140 12L143.607 17.4067C143.847 17.76 144.207 18 144.667 18H154.667C155.4 18 156 17.4 156 16.6667V7.33333C156 6.6 155.4 6 154.667 6ZM154.667 16.6667H144.713L141.6 12L144.707 7.33333H154.667V16.6667ZM146.94 15.3333L149.333 12.94L151.727 15.3333L152.667 14.3933L150.273 12L152.667 9.60667L151.727 8.66667L149.333 11.06L146.94 8.66667L146 9.60667L148.393 12L146 14.3933L146.94 15.3333Z" fill="#C2D6C2"/>
</g>
<rect x="0.5" y="0.5" width="163" height="23" stroke="#4D4D4D"/>
<defs>
<clipPath id="clip0_272_659">
<rect width="16" height="16" fill="white" transform="translate(140 4)"/>
</clipPath>
</defs>
</svg>
