<svg width="83" height="24" viewBox="0 0 83 24" fill="none" xmlns="http://www.w3.org/2000/svg">
<rect x="0.5" y="0.5" width="82" height="23" fill="#1C1E1C"/>
<path d="M14.8076 12.8682L16.209 13.3125C15.9941 14.0938 15.6361 14.6748 15.1348 15.0557C14.6367 15.4333 14.0036 15.6221 13.2354 15.6221C12.2848 15.6221 11.5036 15.2982 10.8916 14.6504C10.2796 13.9993 9.97363 13.1107 9.97363 11.9844C9.97363 10.793 10.2812 9.86849 10.8965 9.21094C11.5117 8.55013 12.3206 8.21973 13.3232 8.21973C14.1989 8.21973 14.9102 8.47852 15.457 8.99609C15.7826 9.30208 16.0267 9.74154 16.1895 10.3145L14.7588 10.6562C14.6742 10.2852 14.4967 9.99219 14.2266 9.77734C13.9596 9.5625 13.6341 9.45508 13.25 9.45508C12.7194 9.45508 12.2881 9.64551 11.9561 10.0264C11.6273 10.4072 11.4629 11.0241 11.4629 11.877C11.4629 12.7819 11.6257 13.4264 11.9512 13.8105C12.2767 14.1947 12.6999 14.3867 13.2207 14.3867C13.6048 14.3867 13.9352 14.2646 14.2119 14.0205C14.4886 13.7764 14.6872 13.3923 14.8076 12.8682ZM20.2764 15.5V8.40039H21.7217V14.2939H25.3154V15.5H20.2764ZM28.6553 11.9648C28.6553 11.2357 28.7643 10.6237 28.9824 10.1289C29.1452 9.76432 29.3665 9.43717 29.6465 9.14746C29.9297 8.85775 30.2389 8.6429 30.5742 8.50293C31.0202 8.31413 31.5345 8.21973 32.1172 8.21973C33.1719 8.21973 34.015 8.54688 34.6465 9.20117C35.2812 9.85547 35.5986 10.7653 35.5986 11.9307C35.5986 13.0863 35.2845 13.9912 34.6562 14.6455C34.028 15.2965 33.1882 15.6221 32.1367 15.6221C31.0723 15.6221 30.2259 15.2982 29.5977 14.6504C28.9694 13.9993 28.6553 13.1042 28.6553 11.9648ZM30.1445 11.916C30.1445 12.7266 30.3317 13.3418 30.7061 13.7617C31.0804 14.1784 31.5557 14.3867 32.1318 14.3867C32.708 14.3867 33.18 14.18 33.5479 13.7666C33.9189 13.3499 34.1045 12.7266 34.1045 11.8965C34.1045 11.0762 33.9238 10.4642 33.5625 10.0605C33.2044 9.6569 32.7275 9.45508 32.1318 9.45508C31.5361 9.45508 31.056 9.66016 30.6914 10.0703C30.3268 10.4772 30.1445 11.0924 30.1445 11.916ZM39.1484 13.1709L40.5547 13.0342C40.6393 13.5062 40.8102 13.8529 41.0674 14.0742C41.3278 14.2956 41.6777 14.4062 42.1172 14.4062C42.5827 14.4062 42.9326 14.3086 43.167 14.1133C43.4046 13.9147 43.5234 13.6836 43.5234 13.4199C43.5234 13.2507 43.473 13.1074 43.3721 12.9902C43.2744 12.8698 43.1019 12.7656 42.8545 12.6777C42.6852 12.6191 42.2995 12.515 41.6973 12.3652C40.9225 12.1732 40.3789 11.9372 40.0664 11.6572C39.627 11.2633 39.4072 10.7832 39.4072 10.2168C39.4072 9.85221 39.5098 9.51204 39.7148 9.19629C39.9232 8.87728 40.221 8.63477 40.6084 8.46875C40.999 8.30273 41.4694 8.21973 42.0195 8.21973C42.918 8.21973 43.5934 8.41667 44.0459 8.81055C44.5016 9.20443 44.7409 9.73014 44.7637 10.3877L43.3184 10.4512C43.2565 10.0833 43.123 9.81966 42.918 9.66016C42.7161 9.4974 42.4118 9.41602 42.0049 9.41602C41.585 9.41602 41.2562 9.50228 41.0186 9.6748C40.8656 9.78548 40.7891 9.93359 40.7891 10.1191C40.7891 10.2884 40.8607 10.4333 41.0039 10.5537C41.1862 10.7067 41.6289 10.8662 42.332 11.0322C43.0352 11.1982 43.5544 11.3708 43.8896 11.5498C44.2282 11.7256 44.4919 11.9681 44.6807 12.2773C44.8727 12.5833 44.9688 12.9626 44.9688 13.415C44.9688 13.8252 44.8548 14.2093 44.627 14.5674C44.3991 14.9255 44.0768 15.1924 43.6602 15.3682C43.2435 15.5407 42.7243 15.627 42.1025 15.627C41.1976 15.627 40.5026 15.4186 40.0176 15.002C39.5326 14.582 39.2428 13.9717 39.1484 13.1709ZM48.9678 15.5V8.3418H54.2754V9.55273H50.4131V11.1396H54.0068V12.3457H50.4131V14.2939H54.4121V15.5H48.9678Z" fill="#C2D6C2"/>
<path d="M72.1666 8.27334L71.2266 7.33334L67.5 11.06L63.7733 7.33334L62.8333 8.27334L66.56 12L62.8333 15.7267L63.7733 16.6667L67.5 12.94L71.2266 16.6667L72.1666 15.7267L68.44 12L72.1666 8.27334Z" fill="#C2D6C2"/>
<rect x="0.5" y="0.5" width="82" height="23" stroke="#4D4D4D"/>
</svg>
