<svg width="87" height="24" viewBox="0 0 87 24" fill="none" xmlns="http://www.w3.org/2000/svg">
<path d="M9.94824 8.39062V15.5H8.72266V8.39062H9.94824ZM12.8486 11.501V12.4727H9.63574V11.501H12.8486ZM13.2539 8.39062V9.36719H9.63574V8.39062H13.2539ZM18.0293 8.39062V15.5H16.8037V8.39062H18.0293ZM26.4961 14.5283V15.5H22.9268V14.5283H26.4961ZM23.2686 8.39062V15.5H22.043V8.39062H23.2686ZM32.624 8.39062V15.5H31.4082V8.39062H32.624ZM34.8555 8.39062V9.36719H29.1963V8.39062H34.8555ZM42.7021 14.5283V15.5H38.9277V14.5283H42.7021ZM39.2744 8.39062V15.5H38.0488V8.39062H39.2744ZM42.209 11.3594V12.3164H38.9277V11.3594H42.209ZM42.6777 8.39062V9.36719H38.9277V8.39062H42.6777ZM46.1934 8.39062H48.708C49.2484 8.39062 49.709 8.47201 50.0898 8.63477C50.4707 8.79753 50.762 9.03841 50.9639 9.35742C51.1689 9.67318 51.2715 10.0638 51.2715 10.5293C51.2715 10.8841 51.2064 11.1966 51.0762 11.4668C50.946 11.737 50.762 11.9648 50.5244 12.1504C50.2868 12.3327 50.0036 12.4743 49.6748 12.5752L49.3037 12.7559H47.043L47.0332 11.7842H48.7275C49.0205 11.7842 49.2646 11.7321 49.46 11.6279C49.6553 11.5238 49.8018 11.3822 49.8994 11.2031C50.0003 11.0208 50.0508 10.8158 50.0508 10.5879C50.0508 10.3405 50.002 10.1257 49.9043 9.94336C49.8099 9.75781 49.6634 9.61621 49.4648 9.51855C49.2663 9.41764 49.014 9.36719 48.708 9.36719H47.4189V15.5H46.1934V8.39062ZM50.251 15.5L48.5811 12.3066L49.8652 12.3018L51.5596 15.4365V15.5H50.251ZM58.7227 13.6689C58.7227 13.5225 58.6999 13.3923 58.6543 13.2783C58.612 13.1644 58.5355 13.0602 58.4248 12.9658C58.3141 12.8714 58.1579 12.7803 57.9561 12.6924C57.7575 12.6012 57.5036 12.5085 57.1943 12.4141C56.8558 12.3099 56.5433 12.1943 56.2568 12.0674C55.9736 11.9372 55.7262 11.7874 55.5146 11.6182C55.3031 11.4456 55.1387 11.2487 55.0215 11.0273C54.9043 10.8027 54.8457 10.5439 54.8457 10.251C54.8457 9.96126 54.9059 9.69759 55.0264 9.45996C55.1501 9.22233 55.3242 9.01725 55.5488 8.84473C55.7767 8.66895 56.0452 8.53385 56.3545 8.43945C56.6637 8.3418 57.0055 8.29297 57.3799 8.29297C57.9072 8.29297 58.3613 8.39062 58.7422 8.58594C59.1263 8.78125 59.4209 9.04329 59.626 9.37207C59.8343 9.70085 59.9385 10.0638 59.9385 10.4609H58.7227C58.7227 10.2266 58.6722 10.0199 58.5713 9.84082C58.4736 9.65853 58.3239 9.5153 58.1221 9.41113C57.9235 9.30697 57.6712 9.25488 57.3652 9.25488C57.0755 9.25488 56.8346 9.29883 56.6426 9.38672C56.4505 9.47461 56.3073 9.59342 56.2129 9.74316C56.1185 9.8929 56.0713 10.0622 56.0713 10.251C56.0713 10.3844 56.1022 10.5065 56.1641 10.6172C56.2259 10.7246 56.3203 10.8255 56.4473 10.9199C56.5742 11.0111 56.7337 11.0973 56.9258 11.1787C57.1178 11.2601 57.3441 11.3382 57.6045 11.4131C57.9984 11.5303 58.3418 11.6605 58.6348 11.8037C58.9277 11.9437 59.1719 12.1032 59.3672 12.2822C59.5625 12.4613 59.709 12.6647 59.8066 12.8926C59.9043 13.1172 59.9531 13.3727 59.9531 13.6592C59.9531 13.9587 59.8929 14.2288 59.7725 14.4697C59.652 14.7074 59.4795 14.9108 59.2549 15.0801C59.0335 15.2461 58.7666 15.3747 58.4541 15.4658C58.1449 15.5537 57.7998 15.5977 57.4189 15.5977C57.0771 15.5977 56.7402 15.5521 56.4082 15.4609C56.0794 15.3698 55.7799 15.2314 55.5098 15.0459C55.2396 14.8571 55.0247 14.6227 54.8652 14.3428C54.7057 14.0596 54.626 13.7292 54.626 13.3516H55.8516C55.8516 13.5827 55.8906 13.7796 55.9688 13.9424C56.0501 14.1051 56.1624 14.2386 56.3057 14.3428C56.4489 14.4437 56.6149 14.5186 56.8037 14.5674C56.9958 14.6162 57.2008 14.6406 57.4189 14.6406C57.7054 14.6406 57.9447 14.5999 58.1367 14.5186C58.332 14.4372 58.4785 14.3232 58.5762 14.1768C58.6738 14.0303 58.7227 13.861 58.7227 13.6689Z" fill="#C2D6C2"/>
<path d="M77 17.2533C77.0267 17.4533 76.96 17.6667 76.8067 17.8067C76.745 17.8685 76.6717 17.9175 76.5911 17.951C76.5104 17.9844 76.424 18.0016 76.3367 18.0016C76.2494 18.0016 76.1629 17.9844 76.0823 17.951C76.0016 17.9175 75.9283 17.8685 75.8667 17.8067L73.1933 15.1333C73.1206 15.0623 73.0653 14.9753 73.0318 14.8793C72.9983 14.7833 72.9874 14.6809 73 14.58V11.1667L69.8067 7.08C69.6984 6.94102 69.6496 6.76484 69.6708 6.58995C69.692 6.41507 69.7816 6.2557 69.92 6.14667C70.0467 6.05333 70.1867 6 70.3333 6H79.6667C79.8133 6 79.9533 6.05333 80.08 6.14667C80.2184 6.2557 80.308 6.41507 80.3292 6.58995C80.3504 6.76484 80.3016 6.94102 80.1933 7.08L77 11.1667V17.2533ZM71.6933 7.33333L74.3333 10.7067V14.3867L75.6667 15.72V10.7L78.3067 7.33333H71.6933Z" fill="#C2D6C2"/>
</svg>
