<svg width="83" height="24" viewBox="0 0 83 24" fill="none" xmlns="http://www.w3.org/2000/svg">
<path d="M8.7373 15.5V8.3418H13.6445V9.55273H10.1826V11.2471H13.1709V12.458H10.1826V15.5H8.7373ZM17.5801 15.5V8.3418H19.0254V15.5H17.5801ZM23.2295 15.5V8.40039H24.6748V14.2939H28.2686V15.5H23.2295ZM33.5127 15.5V9.55273H31.3887V8.3418H37.0771V9.55273H34.958V15.5H33.5127ZM40.7979 15.5V8.3418H46.1055V9.55273H42.2432V11.1396H45.8369V12.3457H42.2432V14.2939H46.2422V15.5H40.7979ZM50.2559 15.5V8.3418H53.2979C54.0628 8.3418 54.6178 8.4069 54.9629 8.53711C55.3112 8.66406 55.5895 8.89193 55.7979 9.2207C56.0062 9.54948 56.1104 9.92546 56.1104 10.3486C56.1104 10.8857 55.9525 11.3301 55.6367 11.6816C55.321 12.0299 54.849 12.2497 54.2207 12.3408C54.5332 12.5231 54.7904 12.7233 54.9922 12.9414C55.1973 13.1595 55.4723 13.5469 55.8174 14.1035L56.6914 15.5H54.9629L53.918 13.9424C53.5469 13.3857 53.293 13.0358 53.1562 12.8926C53.0195 12.7461 52.8747 12.6468 52.7217 12.5947C52.5687 12.5394 52.3262 12.5117 51.9941 12.5117H51.7012V15.5H50.2559ZM51.7012 11.3691H52.7705C53.4639 11.3691 53.8968 11.3398 54.0693 11.2812C54.2419 11.2227 54.377 11.1217 54.4746 10.9785C54.5723 10.8353 54.6211 10.6562 54.6211 10.4414C54.6211 10.2005 54.556 10.0068 54.4258 9.86035C54.2988 9.71061 54.1182 9.61621 53.8838 9.57715C53.7666 9.56087 53.415 9.55273 52.8291 9.55273H51.7012V11.3691Z" fill="#C2D6C2"/>
<path d="M71 17.2533C71.0267 17.4533 70.96 17.6667 70.8067 17.8067C70.745 17.8685 70.6718 17.9175 70.5911 17.951C70.5105 17.9844 70.424 18.0016 70.3367 18.0016C70.2494 18.0016 70.1629 17.9844 70.0823 17.951C70.0016 17.9175 69.9284 17.8685 69.8667 17.8067L67.1934 15.1333C67.1206 15.0623 67.0654 14.9753 67.0318 14.8793C66.9983 14.7833 66.9874 14.6809 67 14.58V11.1667L63.8067 7.08C63.6984 6.94102 63.6496 6.76484 63.6708 6.58995C63.6921 6.41507 63.7816 6.2557 63.92 6.14667C64.0467 6.05333 64.1867 6 64.3334 6H73.6667C73.8134 6 73.9534 6.05333 74.08 6.14667C74.2184 6.2557 74.308 6.41507 74.3292 6.58995C74.3505 6.76484 74.3016 6.94102 74.1934 7.08L71 11.1667V17.2533ZM65.6934 7.33333L68.3334 10.7067V14.3867L69.6667 15.72V10.7L72.3067 7.33333H65.6934Z" fill="#C2D6C2"/>
</svg>
