<svg width="12" height="12" viewBox="0 0 12 12" fill="none" xmlns="http://www.w3.org/2000/svg">
<g clip-path="url(#clip0_272_693)">
<path d="M2 6.5C2.55 6.5 3 6.05 3 5.5C3 4.95 2.55 4.5 2 4.5C1.45 4.5 1 4.95 1 5.5C1 6.05 1.45 6.5 2 6.5ZM2.565 7.05C2.38 7.02 2.195 7 2 7C1.505 7 1.035 7.105 0.61 7.29C0.428856 7.36743 0.274462 7.49638 0.166009 7.66084C0.0575564 7.8253 -0.000171843 8.018 3.84247e-07 8.215V9H2.25V8.195C2.25 7.78 2.365 7.39 2.565 7.05ZM10 6.5C10.55 6.5 11 6.05 11 5.5C11 4.95 10.55 4.5 10 4.5C9.45 4.5 9 4.95 9 5.5C9 6.05 9.45 6.5 10 6.5ZM12 8.215C12 7.81 11.76 7.45 11.39 7.29C10.9516 7.09869 10.4784 6.99997 10 7C9.805 7 9.62 7.02 9.435 7.05C9.635 7.39 9.75 7.78 9.75 8.195V9H12V8.215ZM8.12 6.825C7.535 6.565 6.815 6.375 6 6.375C5.185 6.375 4.465 6.57 3.88 6.825C3.61653 6.94377 3.39315 7.13641 3.23696 7.37958C3.08077 7.62275 2.99845 7.90599 3 8.195V9H9V8.195C9 7.605 8.66 7.065 8.12 6.825ZM4.035 8C4.08 7.885 4.1 7.805 4.49 7.655C4.975 7.465 5.485 7.375 6 7.375C6.515 7.375 7.025 7.465 7.51 7.655C7.895 7.805 7.915 7.885 7.965 8H4.035ZM6 4C6.275 4 6.5 4.225 6.5 4.5C6.5 4.775 6.275 5 6 5C5.725 5 5.5 4.775 5.5 4.5C5.5 4.225 5.725 4 6 4ZM6 3C5.17 3 4.5 3.67 4.5 4.5C4.5 5.33 5.17 6 6 6C6.83 6 7.5 5.33 7.5 4.5C7.5 3.67 6.83 3 6 3Z" fill="#C2D6C2"/>
</g>
<defs>
<clipPath id="clip0_272_693">
<rect width="12" height="12" fill="white"/>
</clipPath>
</defs>
</svg>
