<svg width="12" height="12" viewBox="0 0 12 12" fill="none" xmlns="http://www.w3.org/2000/svg">
<path d="M5.29501 6.705C5.50001 6.9 5.50001 7.22 5.29501 7.415C5.10001 7.61 4.78001 7.61 4.58501 7.415C4.1167 6.94599 3.85366 6.31029 3.85366 5.6475C3.85366 4.98471 4.1167 4.34901 4.58501 3.88L6.35501 2.11C6.82402 1.64169 7.45972 1.37865 8.12251 1.37865C8.7853 1.37865 9.42099 1.64169 9.89001 2.11C10.3583 2.57901 10.6214 3.21471 10.6214 3.8775C10.6214 4.54029 10.3583 5.17599 9.89001 5.645L9.14501 6.39C9.15001 5.98 9.08501 5.57 8.94501 5.18L9.18001 4.94C9.32018 4.80134 9.43145 4.63626 9.5074 4.45432C9.58334 4.27237 9.62245 4.07716 9.62245 3.88C9.62245 3.68284 9.58334 3.48763 9.5074 3.30569C9.43145 3.12374 9.32018 2.95866 9.18001 2.82C9.04135 2.67983 8.87627 2.56855 8.69432 2.49261C8.51237 2.41667 8.31717 2.37756 8.12001 2.37756C7.92285 2.37756 7.72764 2.41667 7.54569 2.49261C7.36374 2.56855 7.19866 2.67983 7.06001 2.82L5.29501 4.585C5.15484 4.72366 5.04356 4.88874 4.96762 5.07069C4.89167 5.25263 4.85257 5.44784 4.85257 5.645C4.85257 5.84216 4.89167 6.03737 4.96762 6.21932C5.04356 6.40126 5.15484 6.56634 5.29501 6.705ZM6.70501 4.585C6.90001 4.39 7.22001 4.39 7.41501 4.585C7.88332 5.05401 8.14635 5.68971 8.14635 6.3525C8.14635 7.01529 7.88332 7.65099 7.41501 8.12L5.64501 9.89C5.17599 10.3583 4.5403 10.6213 3.87751 10.6213C3.21472 10.6213 2.57902 10.3583 2.11001 9.89C1.6417 9.42099 1.37866 8.78529 1.37866 8.1225C1.37866 7.45971 1.6417 6.82401 2.11001 6.355L2.85501 5.61C2.85001 6.02 2.91501 6.43 3.05501 6.825L2.82001 7.06C2.67984 7.19866 2.56856 7.36374 2.49262 7.54568C2.41667 7.72763 2.37757 7.92284 2.37757 8.12C2.37757 8.31716 2.41667 8.51237 2.49262 8.69431C2.56856 8.87626 2.67984 9.04134 2.82001 9.18C2.95866 9.32017 3.12374 9.43145 3.30569 9.50739C3.48764 9.58333 3.68285 9.62244 3.88001 9.62244C4.07717 9.62244 4.27237 9.58333 4.45432 9.50739C4.63627 9.43145 4.80135 9.32017 4.94001 9.18L6.70501 7.415C6.84518 7.27634 6.95645 7.11126 7.0324 6.92932C7.10834 6.74737 7.14745 6.55216 7.14745 6.355C7.14745 6.15784 7.10834 5.96263 7.0324 5.78069C6.95645 5.59874 6.84518 5.43366 6.70501 5.295C6.65645 5.2495 6.61774 5.19451 6.59128 5.13345C6.56481 5.07239 6.55116 5.00655 6.55116 4.94C6.55116 4.87345 6.56481 4.80761 6.59128 4.74655C6.61774 4.68549 6.65645 4.6305 6.70501 4.585Z" fill="#C2D6C2"/>
</svg>
