<svg width="12" height="12" viewBox="0 0 12 12" fill="none" xmlns="http://www.w3.org/2000/svg">
<path d="M10.5 1.5H1.5C1.23478 1.5 0.98043 1.60536 0.792893 1.79289C0.605357 1.98043 0.5 2.23478 0.5 2.5V9.5C0.5 9.76522 0.605357 10.0196 0.792893 10.2071C0.98043 10.3946 1.23478 10.5 1.5 10.5H10.5C10.7652 10.5 11.0196 10.3946 11.2071 10.2071C11.3946 10.0196 11.5 9.76522 11.5 9.5V2.5C11.5 2.23478 11.3946 1.98043 11.2071 1.79289C11.0196 1.60536 10.7652 1.5 10.5 1.5ZM10.5 9.5H1.5V2.5H6.5V4.5H10.5V9.5Z" fill="#C2D6C2"/>
</svg>
