<svg width="133" height="24" viewBox="0 0 133 24" fill="none" xmlns="http://www.w3.org/2000/svg">
<path d="M0.660156 14.4727C0.660156 13.7695 0.78125 12.9688 1.02344 12.0703L2.67578 5.51953C3.02734 4.12891 3.26172 3.19922 3.37891 2.73047C3.23828 2.71484 3.06641 2.70703 2.86328 2.70703C2.66016 2.70703 2.5 2.70313 2.38281 2.69531C2.27344 2.6875 2.16016 2.66797 2.04297 2.63672C1.92578 2.60547 1.83984 2.55469 1.78516 2.48438C1.73828 2.41406 1.71484 2.3125 1.71484 2.17969C1.71484 1.85938 1.84766 1.66406 2.11328 1.59375C2.37891 1.52344 3.01562 1.46484 4.02344 1.41797C4.58594 1.38672 5.04297 1.36328 5.39453 1.34766H5.58203C5.94922 1.34766 6.13281 1.5 6.13281 1.80469C6.13281 1.96094 6.10938 2.11328 6.0625 2.26172L4.69141 7.75781C5.51953 7.29688 6.3125 7.0625 7.07031 7.05469C7.40625 7.05469 7.73438 7.08594 8.05469 7.14844C8.375 7.21094 8.71094 7.33594 9.0625 7.52344C9.41406 7.71094 9.72656 7.94531 10 8.22656C10.2734 8.5 10.4922 8.87109 10.6562 9.33984C10.8281 9.80078 10.9141 10.3281 10.9141 10.9219C10.9141 12.0391 10.6641 13.1484 10.1641 14.25C9.67188 15.3438 8.91016 16.2891 7.87891 17.0859C6.84766 17.875 5.68359 18.2695 4.38672 18.2695C3.26953 18.2695 2.36719 17.9414 1.67969 17.2852C1 16.6289 0.660156 15.6914 0.660156 14.4727ZM2.96875 15.5273C2.96875 16.1992 3.11719 16.6758 3.41406 16.957C3.71094 17.2383 4.05078 17.3789 4.43359 17.3789C4.86328 17.3789 5.27734 17.2305 5.67578 16.9336C6.08203 16.6367 6.39453 16.3047 6.61328 15.9375C7.01172 15.2969 7.39453 14.2461 7.76172 12.7852C8.13672 11.3164 8.32422 10.2695 8.32422 9.64453C8.32422 9.03516 8.18359 8.60156 7.90234 8.34375C7.62109 8.07812 7.30469 7.94531 6.95312 7.94531C6.35938 7.94531 5.79688 8.14844 5.26562 8.55469C4.74219 8.96094 4.39844 9.32422 4.23438 9.64453C4.1875 9.76953 4.07031 10.1836 3.88281 10.8867C3.70312 11.582 3.50391 12.4258 3.28516 13.418C3.07422 14.4102 2.96875 15.1133 2.96875 15.5273ZM15.2833 11.9766C15.2833 7.70312 16.7169 4.14453 19.5841 1.30078C20.4981 0.433594 21.1114 0 21.4239 0C21.713 0 21.8575 0.113281 21.8575 0.339844C21.8575 0.417969 21.7325 0.585938 21.4825 0.84375C18.9044 3.4375 17.6153 7.15625 17.6153 12C17.6153 14.3047 17.92 16.375 18.5294 18.2109C19.2013 20.2734 20.2872 22.0039 21.7872 23.4023C21.7872 23.4023 21.795 23.4258 21.8106 23.4727C21.8419 23.5352 21.8575 23.5898 21.8575 23.6367C21.8575 23.8633 21.713 23.9766 21.4239 23.9766C21.2442 23.9766 20.9356 23.8125 20.4981 23.4844C20.0606 23.1562 19.5216 22.6406 18.8809 21.9375C18.2403 21.2344 17.6817 20.457 17.2052 19.6055C15.9239 17.3477 15.2833 14.8047 15.2833 11.9766ZM25.0098 16.125C25.0098 15.5469 25.1895 15.0977 25.5489 14.7773C25.9083 14.4492 26.3067 14.2852 26.7442 14.2852C27.0645 14.2852 27.338 14.3867 27.5645 14.5898C27.7989 14.7852 27.9161 15.0508 27.9161 15.3867C27.9161 16.1523 27.5098 16.6875 26.6973 16.9922C27.002 17.25 27.3263 17.3789 27.67 17.3789C28.2638 17.3789 28.7442 17.0117 29.1114 16.2773C29.338 15.8789 29.6934 14.6797 30.1778 12.6797C30.67 10.6719 30.9161 9.48438 30.9161 9.11719C30.9161 8.70312 30.795 8.40625 30.5528 8.22656C30.3184 8.03906 30.0411 7.94531 29.7208 7.94531C29.127 7.94531 28.545 8.19531 27.9747 8.69531C27.4044 9.1875 26.9864 9.80859 26.7208 10.5586C26.627 10.8477 26.5411 11.0273 26.463 11.0977C26.3927 11.168 26.2442 11.2109 26.0177 11.2266H25.9005C25.4864 11.2266 25.2794 11.1016 25.2794 10.8516C25.2794 10.6562 25.3731 10.3633 25.5606 9.97266C25.7559 9.58203 26.0294 9.16406 26.3809 8.71875C26.7325 8.26562 27.2208 7.875 27.8458 7.54688C28.4708 7.21875 29.1427 7.05469 29.8614 7.05469C31.1739 7.05469 32.1583 7.48828 32.8145 8.35547C33.6427 7.48828 34.4669 7.05469 35.2872 7.05469C35.9747 7.05469 36.5802 7.24609 37.1036 7.62891C37.6348 8.01172 37.9005 8.53906 37.9005 9.21094C37.9005 9.78906 37.7208 10.2422 37.3614 10.5703C37.002 10.8984 36.6036 11.0625 36.1661 11.0625C35.8302 11.0625 35.5489 10.9609 35.3223 10.7578C35.1036 10.5469 34.9942 10.2734 34.9942 9.9375C34.9942 9.17188 35.4044 8.63672 36.2247 8.33203C35.92 8.07422 35.5919 7.94531 35.2403 7.94531C35.0138 7.94531 34.8028 7.99219 34.6075 8.08594C34.42 8.17969 34.2442 8.35547 34.0802 8.61328C33.9239 8.87109 33.7872 9.11719 33.67 9.35156C33.5606 9.57812 33.4356 9.92578 33.295 10.3945C33.1622 10.8555 33.0567 11.2461 32.9786 11.5664C32.9005 11.8867 32.7833 12.3672 32.627 13.0078C32.4786 13.6484 32.3575 14.1523 32.2638 14.5195C32.0684 15.2852 31.9708 15.8438 31.9708 16.1953C31.9708 16.6094 32.0958 16.9102 32.3458 17.0977C32.5958 17.2852 32.8809 17.3789 33.2013 17.3789C33.795 17.3789 34.3731 17.1328 34.9356 16.6406C35.5059 16.1406 35.9278 15.5234 36.2013 14.7891C36.2169 14.7578 36.2325 14.7109 36.2481 14.6484C36.2638 14.5781 36.2794 14.5312 36.295 14.5078C36.3106 14.4844 36.3263 14.4492 36.3419 14.4023C36.3575 14.3555 36.3692 14.3242 36.377 14.3086C36.3848 14.293 36.4005 14.2695 36.4239 14.2383C36.4473 14.1992 36.4747 14.1758 36.5059 14.168C36.5372 14.1602 36.5684 14.1484 36.5997 14.1328C36.6309 14.1172 36.6661 14.1094 36.7052 14.1094C36.752 14.1094 36.8067 14.1094 36.8692 14.1094H37.0098C37.4239 14.1094 37.6309 14.2305 37.6309 14.4727C37.6309 15.0664 37.1895 15.8477 36.3067 16.8164C35.4317 17.7852 34.3536 18.2695 33.0723 18.2695C31.6817 18.2695 30.6817 17.8359 30.0723 16.9688H30.0489C29.3458 17.8359 28.5294 18.2695 27.5997 18.2695C26.9278 18.2695 26.3263 18.082 25.795 17.707C25.2716 17.3242 25.0098 16.7969 25.0098 16.125ZM40.3127 23.6367C40.3127 23.5586 40.4416 23.3906 40.6994 23.1328C43.2775 20.5391 44.5666 16.8203 44.5666 11.9766C44.5666 7.19531 43.2853 3.5 40.7228 0.890625C40.4494 0.632812 40.3127 0.449219 40.3127 0.339844C40.3127 0.113281 40.4572 0 40.7463 0C40.9259 0 41.2345 0.164062 41.672 0.492188C42.1095 0.820312 42.6486 1.33594 43.2892 2.03906C43.9298 2.74219 44.4884 3.51953 44.965 4.37109C46.2463 6.62891 46.8869 9.17188 46.8869 12C46.8869 16.2734 45.4572 19.832 42.5978 22.6758C41.6838 23.543 41.0666 23.9766 40.7463 23.9766C40.4572 23.9766 40.3127 23.8633 40.3127 23.6367ZM59.6369 18V16.875H62.2267V2.66016H59.6369V1.53516H68.7541C70.9494 1.53516 72.6877 1.96094 73.9689 2.8125C75.258 3.65625 75.9025 4.71094 75.9025 5.97656C75.9025 6.82812 75.5666 7.60156 74.8947 8.29688C74.2228 8.99219 73.2228 9.50781 71.8947 9.84375C73.4338 10.4219 74.3322 11.3555 74.59 12.6445C74.59 12.6758 74.6291 13 74.7072 13.6172C74.7853 14.2344 74.8322 14.5898 74.8478 14.6836C74.8947 15.0352 74.9416 15.3281 74.9884 15.5625C75.0431 15.7969 75.1291 16.0781 75.2463 16.4062C75.3634 16.7344 75.5392 16.9844 75.7736 17.1562C76.008 17.3203 76.2931 17.4023 76.6291 17.4023C77.0119 17.4023 77.3478 17.2578 77.6369 16.9688C77.9259 16.6797 78.1017 16.2695 78.1642 15.7383C78.1798 15.6133 78.1955 15.5195 78.2111 15.457C78.2267 15.3945 78.2736 15.3359 78.3517 15.2812C78.4377 15.2188 78.5588 15.1875 78.715 15.1875C79.0978 15.1875 79.2892 15.3633 79.2892 15.7148C79.2892 15.8242 79.2736 15.9648 79.2423 16.1367C79.2111 16.3086 79.133 16.5234 79.008 16.7812C78.8908 17.0312 78.7345 17.2656 78.5392 17.4844C78.3517 17.7031 78.0705 17.8867 77.6955 18.0352C77.3205 18.1914 76.8908 18.2695 76.4064 18.2695C74.883 18.2695 73.7072 18.0586 72.8791 17.6367C72.4806 17.4414 72.1603 17.2266 71.9181 16.9922C71.6838 16.75 71.5158 16.4531 71.4142 16.1016C71.3205 15.75 71.2619 15.4531 71.2384 15.2109C71.215 14.9609 71.2033 14.5781 71.2033 14.0625C71.2033 13.1016 71.1681 12.4531 71.0978 12.1172C71.0275 11.7812 70.8048 11.4141 70.4298 11.0156C69.9377 10.4688 69.2267 10.1953 68.297 10.1953H65.4963V16.875H68.0861V18C67.508 17.9531 66.0978 17.9297 63.8556 17.9297C61.6213 17.9297 60.215 17.9531 59.6369 18ZM65.4963 9.33984H68.2736C69.0236 9.33984 69.6642 9.26172 70.1955 9.10547C70.7267 8.94141 71.1213 8.76562 71.3791 8.57812C71.6447 8.38281 71.8439 8.10547 71.9767 7.74609C72.1173 7.37891 72.1955 7.08984 72.2111 6.87891C72.2267 6.66016 72.2345 6.36719 72.2345 6C72.2345 5.61719 72.2228 5.30859 72.1994 5.07422C72.1759 4.83984 72.0939 4.55078 71.9533 4.20703C71.8205 3.86328 71.6252 3.59766 71.3673 3.41016C71.1173 3.21484 70.7306 3.04297 70.2072 2.89453C69.6838 2.73828 69.0548 2.66016 68.3205 2.66016H65.4963V9.33984ZM80.1681 15.4102C80.1681 13.1211 82.7658 11.8633 87.9611 11.6367V10.8281C87.9611 8.9375 87.0822 7.99219 85.3244 7.99219C84.6994 7.99219 84.1212 8.04688 83.59 8.15625C83.9416 8.39844 84.1173 8.79297 84.1173 9.33984C84.1173 9.81641 83.965 10.1875 83.6603 10.4531C83.3634 10.7188 83.0119 10.8516 82.6056 10.8516C82.2384 10.8516 81.8986 10.7188 81.5861 10.4531C81.2736 10.1875 81.1173 9.81641 81.1173 9.33984C81.1173 7.87109 82.5509 7.13281 85.4181 7.125C87.1447 7.125 88.4572 7.46094 89.3556 8.13281C90.2541 8.80469 90.7033 9.70312 90.7033 10.8281V15.9844C90.7033 16.2109 90.7189 16.3711 90.7502 16.4648C90.7814 16.5586 90.9064 16.6523 91.1252 16.7461C91.3517 16.832 91.6994 16.875 92.1681 16.875C92.3087 16.875 92.4103 16.8828 92.4728 16.8984C92.5353 16.9141 92.6017 16.9609 92.672 17.0391C92.7502 17.1172 92.7892 17.2461 92.7892 17.4258C92.7892 17.6836 92.7306 17.8438 92.6134 17.9062C92.5041 17.9688 92.3048 18 92.0158 18H90.8673C90.2736 18 89.7931 17.9453 89.4259 17.8359C89.0587 17.7188 88.8048 17.5508 88.6642 17.332C88.5314 17.1055 88.4494 16.918 88.4181 16.7695C88.3869 16.6133 88.3712 16.4062 88.3712 16.1484C87.6837 17.4766 86.4923 18.1406 84.797 18.1406C84.3205 18.1406 83.84 18.1055 83.3556 18.0352C82.8712 17.9648 82.3712 17.8398 81.8556 17.6602C81.3478 17.4727 80.9377 17.1875 80.6252 16.8047C80.3205 16.4219 80.1681 15.957 80.1681 15.4102ZM82.9689 15.3867C82.9689 15.918 83.1798 16.3672 83.6017 16.7344C84.0314 17.1016 84.5509 17.2852 85.1603 17.2852C85.3712 17.2852 85.6056 17.2539 85.8634 17.1914C86.1291 17.1211 86.4337 17.0078 86.7775 16.8516C87.1212 16.6875 87.4025 16.4141 87.6212 16.0312C87.8478 15.6484 87.9611 15.1914 87.9611 14.6602V12.3867C87.6095 12.4023 87.2775 12.4297 86.965 12.4688C86.6525 12.5078 86.2306 12.5977 85.6994 12.7383C85.1759 12.8711 84.7306 13.0352 84.3634 13.2305C83.9962 13.418 83.672 13.7031 83.3908 14.0859C83.1095 14.4609 82.9689 14.8945 82.9689 15.3867ZM93.715 12.6914C93.715 11.0273 94.2736 9.69531 95.3908 8.69531C96.5158 7.69531 97.965 7.19531 99.7384 7.19531C100.973 7.19531 102.051 7.55859 102.973 8.28516V3.59766C102.973 3.15234 102.887 2.88672 102.715 2.80078C102.551 2.70703 102.086 2.66016 101.32 2.66016V1.53516L105.574 1.34766V15.9375C105.574 16.3828 105.656 16.6523 105.82 16.7461C105.992 16.832 106.461 16.875 107.227 16.875V18L102.832 18.1406V16.9688C101.856 17.75 100.735 18.1406 99.4689 18.1406C97.7111 18.1406 96.3127 17.6328 95.2736 16.6172C94.2345 15.6016 93.715 14.293 93.715 12.6914ZM96.7853 12.6914C96.7853 13.0898 96.7892 13.4062 96.797 13.6406C96.8048 13.875 96.8322 14.1992 96.8791 14.6133C96.9259 15.0273 97.0119 15.3672 97.1369 15.6328C97.2697 15.8984 97.4377 16.1719 97.6408 16.4531C97.8517 16.7344 98.133 16.9453 98.4845 17.0859C98.8361 17.2188 99.2462 17.2852 99.715 17.2852C100.949 17.2852 101.988 16.6992 102.832 15.5273V9.52734C102.098 8.55078 101.145 8.0625 99.9728 8.0625C98.84 8.0625 97.9845 8.48047 97.4064 9.31641C96.9923 9.93359 96.7853 11.0586 96.7853 12.6914ZM108.879 15.4102C108.879 13.1211 111.477 11.8633 116.672 11.6367V10.8281C116.672 8.9375 115.793 7.99219 114.035 7.99219C113.41 7.99219 112.832 8.04688 112.301 8.15625C112.652 8.39844 112.828 8.79297 112.828 9.33984C112.828 9.81641 112.676 10.1875 112.371 10.4531C112.074 10.7188 111.723 10.8516 111.317 10.8516C110.949 10.8516 110.61 10.7188 110.297 10.4531C109.985 10.1875 109.828 9.81641 109.828 9.33984C109.828 7.87109 111.262 7.13281 114.129 7.125C115.856 7.125 117.168 7.46094 118.067 8.13281C118.965 8.80469 119.414 9.70312 119.414 10.8281V15.9844C119.414 16.2109 119.43 16.3711 119.461 16.4648C119.492 16.5586 119.617 16.6523 119.836 16.7461C120.063 16.832 120.41 16.875 120.879 16.875C121.02 16.875 121.121 16.8828 121.184 16.8984C121.246 16.9141 121.313 16.9609 121.383 17.0391C121.461 17.1172 121.5 17.2461 121.5 17.4258C121.5 17.6836 121.442 17.8438 121.324 17.9062C121.215 17.9688 121.016 18 120.727 18H119.578C118.985 18 118.504 17.9453 118.137 17.8359C117.77 17.7188 117.516 17.5508 117.375 17.332C117.242 17.1055 117.16 16.918 117.129 16.7695C117.098 16.6133 117.082 16.4062 117.082 16.1484C116.395 17.4766 115.203 18.1406 113.508 18.1406C113.031 18.1406 112.551 18.1055 112.067 18.0352C111.582 17.9648 111.082 17.8398 110.567 17.6602C110.059 17.4727 109.649 17.1875 109.336 16.8047C109.031 16.4219 108.879 15.957 108.879 15.4102ZM111.68 15.3867C111.68 15.918 111.891 16.3672 112.313 16.7344C112.742 17.1016 113.262 17.2852 113.871 17.2852C114.082 17.2852 114.317 17.2539 114.574 17.1914C114.84 17.1211 115.145 17.0078 115.488 16.8516C115.832 16.6875 116.113 16.4141 116.332 16.0312C116.559 15.6484 116.672 15.1914 116.672 14.6602V12.3867C116.32 12.4023 115.988 12.4297 115.676 12.4688C115.363 12.5078 114.942 12.5977 114.41 12.7383C113.887 12.8711 113.442 13.0352 113.074 13.2305C112.707 13.418 112.383 13.7031 112.102 14.0859C111.82 14.4609 111.68 14.8945 111.68 15.3867ZM122.402 18V16.875H124.055V9.45703C124.055 9.01172 123.969 8.74609 123.797 8.66016C123.633 8.56641 123.168 8.51953 122.402 8.51953V7.39453L126.387 7.19531V9.91406C127.043 8.10938 128.106 7.20312 129.574 7.19531C130.246 7.19531 130.836 7.375 131.344 7.73438C131.86 8.08594 132.117 8.5625 132.117 9.16406C132.117 9.60938 131.969 9.96484 131.672 10.2305C131.375 10.4961 131.035 10.6289 130.652 10.6289C130.27 10.6289 129.93 10.5039 129.633 10.2539C129.336 9.99609 129.188 9.63281 129.188 9.16406C129.188 8.73438 129.34 8.36719 129.645 8.0625C129.082 8.0625 128.594 8.21875 128.18 8.53125C127.766 8.84375 127.453 9.25391 127.242 9.76172C127.039 10.2617 126.887 10.7539 126.785 11.2383C126.692 11.7148 126.645 12.1914 126.645 12.668V16.875H128.731V18C128.152 17.9531 127.051 17.9297 125.426 17.9297C125.09 17.9297 124.082 17.9531 122.402 18Z" fill="#C2D6C2"/>
</svg>
