<svg width="72" height="16" viewBox="0 0 72 16" fill="none" xmlns="http://www.w3.org/2000/svg">
<g clip-path="url(#clip0_272_674)">
<path d="M19.6148 12.4247C19.2889 12.4247 18.9629 12.3358 18.637 12.158C18.4 12.0296 18.2024 11.8321 18.0543 11.5753C17.6296 12.1383 17.1259 12.4247 16.5234 12.4247C16.0889 12.4247 15.7136 12.3161 15.4074 12.1185C15.0716 11.9012 14.8938 11.5852 14.8938 11.2198C14.8938 10.9037 14.9926 10.637 15.2 10.4395C15.3975 10.2321 15.6444 10.1333 15.921 10.1333C16.4148 10.1333 16.6913 10.4 16.6913 10.8642C16.6913 11.0617 16.6321 11.2593 16.5037 11.4469C16.4642 11.5161 16.4049 11.5753 16.3555 11.6247C16.4049 11.6247 16.4642 11.6346 16.5234 11.6346C16.7308 11.6346 16.8889 11.5852 17.0173 11.4864C17.1654 11.3778 17.2839 11.2099 17.3926 10.9728C17.5111 10.716 17.6 10.4889 17.6494 10.2914L17.8666 9.47161C18.0049 8.94815 18.1333 8.4642 18.2518 8.00988C18.5185 6.89383 18.5778 6.46914 18.5778 6.31111C18.5778 6.04445 18.5185 5.84691 18.4197 5.70864C18.321 5.58025 18.2024 5.53087 18.0345 5.53087C17.7382 5.53087 17.4321 5.67901 17.1259 5.98519C16.8 6.30124 16.5432 6.76543 16.3555 7.37778C16.2864 7.58519 16.2469 7.65432 16.2074 7.69383C16.1185 7.79259 15.9802 7.80247 15.8518 7.80247C15.5061 7.80247 15.3876 7.60494 15.3876 7.41729C15.3876 7.27901 15.4469 7.07161 15.5753 6.78519C15.6938 6.51852 15.8518 6.2321 16.0494 5.92593C16.2568 5.60988 16.5432 5.33333 16.8987 5.0963C17.2642 4.84938 17.6592 4.73087 18.074 4.73087C18.7852 4.73087 19.3185 5.01729 19.6444 5.59012C19.7629 5.44198 19.9012 5.29383 20.0592 5.15556C20.6123 4.66173 21.4617 4.61235 22.2222 4.99753C22.5975 5.18519 22.8049 5.53087 22.8049 5.97531C22.8049 6.32099 22.6864 6.58766 22.4691 6.77531C22.0148 7.15062 21.4617 7.10124 21.2049 6.80494C21.0765 6.65679 21.0173 6.48889 21.0173 6.31111C21.0173 6.25185 21.0173 6.17284 21.037 6.09383C21.0568 5.98519 21.1259 5.85679 21.2543 5.67901C21.2938 5.62963 21.3234 5.59012 21.3728 5.55062C21.3136 5.55062 21.2444 5.54074 21.1753 5.54074C20.6518 5.54074 20.237 6.0642 19.9506 7.08148C19.7037 8.09877 19.5259 8.84938 19.4074 9.27408C19.1605 10.321 19.1111 10.7062 19.1111 10.8346C19.1111 11.1407 19.1703 11.3679 19.279 11.4765C19.3876 11.5852 19.516 11.6444 19.674 11.6444C19.9802 11.6444 20.2864 11.4963 20.5926 11.1901C20.9185 10.8741 21.1753 10.4 21.3728 9.78765C21.4321 9.6 21.4815 9.51111 21.5407 9.46173C21.6098 9.39259 21.7185 9.37284 21.8765 9.37284C22.0345 9.37284 22.1629 9.41235 22.2419 9.50124C22.2913 9.55062 22.3407 9.63951 22.3308 9.7679C22.3308 9.84691 22.3111 9.99506 22.1531 10.3605C22.0444 10.6272 21.8864 10.9136 21.6889 11.2198C21.4815 11.5457 21.195 11.8321 20.8395 12.0691C20.474 12.3161 20.0691 12.4444 19.6345 12.4444L19.6148 12.4247Z" fill="#C2D6C2"/>
<path d="M2.0642 12.4247C1.42222 12.4247 0.908642 12.158 0.533333 11.6346C0.177778 11.1309 0 10.5086 0 9.76791C0 9.2247 0.0592593 8.7605 0.177778 8.38519L1.78765 1.94569C1.78765 1.94569 1.80741 1.87655 1.80741 1.8568C1.78765 1.8568 1.7679 1.84692 1.73827 1.83704C1.62963 1.81729 1.46173 1.80741 1.23457 1.80741C0.711111 1.80741 0.632099 1.5605 0.622222 1.41235C0.622222 1.25433 0.661728 1.13581 0.730864 1.04692C0.8 0.958031 0.879012 0.898772 0.977778 0.879019C1.02716 0.869142 1.0963 0.859266 1.19506 0.839513L2.76543 0.711118C2.84444 0.691365 2.94321 0.681488 3.06173 0.681488C3.39753 0.681488 3.50617 0.898772 3.50617 1.08643C3.50617 1.15556 3.48642 1.24445 3.43704 1.37285L2.47901 5.18519C2.93333 4.86914 3.37778 4.71112 3.79259 4.71112C4.39506 4.71112 4.90864 4.95803 5.34321 5.43211C5.75802 5.90618 5.97531 6.57778 5.97531 7.42717C5.97531 8.64198 5.57037 9.78766 4.76049 10.8247C3.94074 11.8815 3.0321 12.4148 2.0642 12.4148V12.4247ZM3.77284 5.52099C3.30864 5.52099 2.79506 5.88643 2.26173 6.60741C2.12346 6.78519 2.01481 7.01235 1.94568 7.27902C1.55062 8.83951 1.34321 9.86667 1.34321 10.3111C1.34321 10.8049 1.42222 11.1506 1.58025 11.3482C1.7284 11.5358 1.88642 11.6247 2.0642 11.6247C2.35062 11.6247 2.62716 11.4765 2.89383 11.1901C3.19012 10.8642 3.40741 10.5383 3.56543 10.2321C3.78272 9.75803 3.98025 9.13581 4.1679 8.37531C4.35556 7.61482 4.44444 7.06173 4.44444 6.72593C4.44444 6.39013 4.38519 6.10371 4.26667 5.83704C4.1679 5.61976 4.01975 5.52099 3.78272 5.52099H3.77284Z" fill="#C2D6C2"/>
<path d="M27.0716 2.94321C26.7556 2.38025 26.3803 1.85679 25.9556 1.39259C25.5309 0.928394 25.1654 0.582715 24.879 0.365431C24.5926 0.148147 24.3852 0.039505 24.2766 0.039505C24.0988 0.039505 24.0099 0.108641 24.0099 0.246912C24.0099 0.296295 24.0593 0.395061 24.2766 0.602468C25.9852 2.34074 26.8445 4.8395 26.8445 8.01975C26.8445 11.2 25.9753 13.758 24.2568 15.4765C24.0395 15.6938 24.0099 15.7728 24.0099 15.7926C24.0099 15.9309 24.0988 16 24.2766 16C24.484 16 24.8988 15.7136 25.5012 15.1407C27.3975 13.2543 28.3556 10.8642 28.3556 8.02963C28.3556 6.15309 27.921 4.44444 27.0716 2.95309V2.94321Z" fill="#C2D6C2"/>
<path d="M33.5111 8.5037C33.3728 8.5037 33.2444 8.49382 33.116 8.46419C32.9876 8.43456 32.8395 8.38518 32.6716 8.30617C32.4839 8.21728 32.3358 8.06913 32.2173 7.86172C32.1086 7.66419 32.0494 7.4074 32.0494 7.12098C32.0494 7.00246 32.0592 6.86419 32.079 6.71604L32.5728 3.74321H31.6049L31.6839 3.16049H31.8222C32.2666 3.14074 32.6222 2.94321 32.9185 2.54814C33.2247 2.13333 33.4321 1.6395 33.5308 1.06666L33.5506 0.928391H34.1728L33.8271 3.06172H35.4864L35.4469 3.25925C35.4469 3.25925 35.4271 3.34814 35.4173 3.42716C35.4074 3.51604 35.3876 3.5753 35.3876 3.61481L35.358 3.75308H33.7086L33.1654 7.04197C33.1654 7.13086 33.1654 7.20987 33.1654 7.26913C33.1654 7.89135 33.4716 7.89135 33.6 7.89135C33.8469 7.89135 34.0543 7.71358 34.2518 7.35802C34.3111 7.2395 34.4197 6.92345 34.5481 6.1037L34.5679 5.96543H35.1901L35.1605 6.15308C35.0815 6.67654 35.0222 7.00246 34.9827 7.16049C34.9432 7.32839 34.8642 7.49629 34.7555 7.68395C34.4691 8.23703 34.0444 8.52345 33.5012 8.52345L33.5111 8.5037Z" fill="#C2D6C2"/>
<path d="M47.2296 8.50371C46.5778 8.50371 46.0148 8.27655 45.5703 7.81235C45.1259 7.35803 44.8987 6.77531 44.8987 6.09383C44.8987 5.27408 45.2049 4.52346 45.8074 3.86173C46.4099 3.19013 47.1308 2.85432 47.9407 2.85432C48.4642 2.85432 48.9185 3.01235 49.2839 3.31852C49.6592 3.63457 49.8568 4.1284 49.8568 4.8C49.8568 4.97778 49.8469 5.15556 49.8173 5.33334C49.7975 5.45185 49.7679 5.59013 49.6494 5.64939C49.5901 5.67901 49.4913 5.69877 49.3136 5.69877H46.2321C46.1827 5.97531 46.1629 6.2321 46.1629 6.45926C46.1629 6.97284 46.2815 7.33827 46.5086 7.54568C46.7457 7.76297 47.0024 7.87161 47.2987 7.87161C47.3876 7.87161 47.4864 7.86173 47.595 7.8321C47.7037 7.81235 47.8518 7.76297 48.0197 7.69383C48.1778 7.62469 48.3358 7.51605 48.5037 7.35803C48.6716 7.2 48.8099 7.00247 48.9383 6.76543C49.0173 6.59753 49.1259 6.50864 49.2642 6.51852C49.4321 6.51852 49.5506 6.63704 49.5506 6.80494C49.5506 6.90371 49.5012 7.02222 49.3827 7.21976C49.2839 7.38766 49.1457 7.56543 48.9679 7.75309C48.7901 7.95062 48.5432 8.11852 48.237 8.26667C47.9308 8.41482 47.5852 8.49383 47.2296 8.49383V8.50371ZM46.3506 5.11605H48.7308C48.7506 4.9284 48.7704 4.7605 48.7704 4.6321C48.7704 3.56544 48.2963 3.43704 47.9407 3.43704C47.8518 3.43704 47.7531 3.45679 47.6345 3.48642C47.516 3.52593 47.3679 3.59506 47.1901 3.71358C47.0222 3.82223 46.8543 4.00988 46.6963 4.27655C46.558 4.50371 46.4494 4.78025 46.3605 5.10618L46.3506 5.11605Z" fill="#C2D6C2"/>
<path d="M54.0543 8.50371C53.3728 8.50371 52.8 8.27655 52.3654 7.8321C51.9308 7.38766 51.7136 6.82469 51.7136 6.17284C51.7136 5.34321 52.0395 4.58272 52.6815 3.89136C53.3333 3.2 54.0839 2.85432 54.9333 2.85432C55.6049 2.85432 56.158 3.08148 56.5926 3.54568C57.0271 4 57.2444 4.58272 57.2444 5.2642C57.2444 6.13334 56.9185 6.89383 56.2667 7.5358C55.6247 8.17778 54.8741 8.50371 54.0444 8.50371H54.0543ZM54.8839 3.44692C54.8148 3.44692 54.7358 3.44692 54.6568 3.46667C54.5679 3.47655 54.4494 3.51605 54.3012 3.56544C54.1629 3.61482 54.0148 3.70371 53.8666 3.8321C53.7185 3.9605 53.5802 4.1284 53.4518 4.33581C53.3037 4.58272 53.1852 4.93827 53.0963 5.40247C53.0074 5.87655 52.9679 6.26173 52.9679 6.53827C52.9679 6.83457 53.0173 7.09136 53.1062 7.28889C53.1852 7.47655 53.2938 7.60494 53.4222 7.67408C53.5704 7.75309 53.6889 7.81235 53.7876 7.8321C54.1629 7.93087 54.5481 7.85185 54.9037 7.63457C55.1704 7.47655 55.3778 7.23951 55.5457 6.94321C55.7136 6.62716 55.8321 6.24198 55.9111 5.78766C55.9901 5.32346 56.0296 4.97778 56.0296 4.74074C56.0296 4.4642 55.9901 4.22716 55.9012 4.03951C55.8222 3.86173 55.7136 3.73334 55.595 3.65432C55.4568 3.57531 55.3284 3.51605 55.2197 3.48642C55.1012 3.45679 54.9926 3.43704 54.8938 3.43704L54.8839 3.44692Z" fill="#C2D6C2"/>
<path d="M61.6494 8.38518H61.5013C61.1358 8.35555 60.6519 8.34567 60.0494 8.34567C59.9507 8.34567 59.8223 8.34567 59.6741 8.34567C59.526 8.34567 59.3581 8.34567 59.1704 8.36543C58.9729 8.36543 58.8247 8.3753 58.7161 8.3753H58.5186L58.6371 7.68394H58.7753C59.3383 7.68394 59.4568 7.63456 59.4667 7.62469C59.4667 7.62469 59.5457 7.5753 59.5852 7.31851L60.1087 4.22715C60.1284 4.09876 60.1383 3.99999 60.1383 3.94073C60.1383 3.81234 60.0889 3.79259 60.079 3.78271C60.0297 3.76296 59.8914 3.72345 59.4865 3.72345H59.3186V3.55555C59.3186 3.55555 59.3186 3.49629 59.3482 3.39752C59.3581 3.33827 59.3679 3.29876 59.3679 3.27901C59.3976 3.05185 59.6544 3.04197 59.7531 3.03209L61.3926 2.91357L61.284 3.5753C61.3729 3.48641 61.4618 3.39752 61.5605 3.31851C61.8766 3.06172 62.2321 2.93333 62.6173 2.93333C62.884 2.93333 63.1013 3.00246 63.279 3.15061C63.4667 3.29876 63.5655 3.49629 63.5655 3.73333C63.5655 3.95061 63.4865 4.12839 63.3482 4.26666C63.1013 4.5037 62.7457 4.56296 62.4395 4.34567C62.3408 4.27654 62.2223 4.13827 62.2223 3.88148C62.2223 3.75308 62.242 3.65431 62.2716 3.56543C61.7186 3.72345 61.3136 4.23703 61.0371 5.11604L60.8395 6.36049C60.6914 7.30864 60.6716 7.48641 60.6716 7.51604C60.6716 7.60493 60.7013 7.61481 60.7309 7.62469C60.7803 7.64444 60.9284 7.67407 61.3531 7.67407H61.7778L61.7383 7.8716C61.7383 7.8716 61.7186 7.96049 61.7087 8.0395C61.6988 8.12839 61.6889 8.18765 61.679 8.22715L61.6494 8.36543V8.38518Z" fill="#C2D6C2"/>
<path d="M65.1161 10.7457C64.8099 10.7457 64.5531 10.6568 64.3457 10.4691C64.1284 10.2815 64.0198 10.0444 64.0198 9.7679C64.0198 9.52099 64.0988 9.32346 64.2568 9.18518C64.405 9.04691 64.5827 8.97778 64.7704 8.97778C65.1457 8.97778 65.3531 9.18518 65.3531 9.54074C65.3531 9.70864 65.2938 9.86667 65.1852 10.0148C65.1457 10.0642 65.0963 10.1136 65.0371 10.1531C65.0766 10.1531 65.1161 10.163 65.1556 10.163C65.4914 10.163 65.8272 9.9358 66.1531 9.48148C66.2124 9.40247 66.3013 9.24444 66.4395 9.02716C66.5778 8.8 66.6963 8.60247 66.7951 8.41481C66.8543 8.29629 66.9037 8.21728 66.9235 8.17778L66.8939 8.05926L65.8963 4.0395C65.8469 3.84197 65.7976 3.80247 65.7778 3.79259C65.758 3.78271 65.6593 3.74321 65.205 3.74321H65.0074L65.1457 3.04197H65.2938C65.5901 3.0716 65.9655 3.08148 66.3901 3.08148C66.5383 3.08148 66.9531 3.0716 67.6445 3.05185H67.8617L67.8222 3.24938C67.8222 3.24938 67.8025 3.34815 67.7926 3.42716C67.7827 3.4963 67.7729 3.54568 67.7729 3.57531V3.74321H67.605C67.4074 3.74321 67.0618 3.76296 67.0618 3.92099C67.0618 3.94074 67.0716 3.99012 67.0914 4.05926L67.7531 6.75555L69.1753 4.29629C69.2938 4.08889 69.3037 4 69.3037 3.97037C69.3037 3.91111 69.284 3.86173 69.2445 3.82222C69.1753 3.76296 69.1358 3.74321 69.1161 3.73333C69.0568 3.72346 69.0173 3.71358 68.9976 3.71358H68.7901L68.9284 3.02222H69.0766C69.7087 3.0716 70.4198 3.08148 70.9037 3.0321L71.121 3.01234L71.0124 3.71358H70.8741C70.4198 3.74321 70.084 3.95062 69.8272 4.37531L66.9432 9.36296C66.4099 10.2617 65.7976 10.716 65.126 10.716L65.1161 10.7457Z" fill="#C2D6C2"/>
<path d="M10.6568 2.95308C10.9729 2.39012 11.3482 1.86666 11.7729 1.40246C12.1976 0.938266 12.563 0.592587 12.8494 0.375303C13.1358 0.158019 13.3432 0.0493774 13.4519 0.0493774C13.6297 0.0493774 13.7185 0.118513 13.7185 0.256785C13.7185 0.306168 13.6692 0.404933 13.4519 0.61234C11.7432 2.35061 10.884 4.84938 10.884 8.02962C10.884 11.2099 11.7531 13.7679 13.4716 15.4864C13.6889 15.7037 13.7185 15.7827 13.7185 15.8025C13.7185 15.9407 13.6297 16.0099 13.4519 16.0099C13.2445 16.0099 12.8297 15.7235 12.2272 15.1506C10.3309 13.2642 9.37286 10.8741 9.37286 8.0395C9.37286 6.16296 9.80743 4.45432 10.6568 2.96296V2.95308Z" fill="#C2D6C2"/>
<path d="M42.9827 7.68395C42.5877 7.68395 42.4296 7.6642 42.3506 7.64444C42.321 7.64444 42.3013 7.63457 42.3013 7.57531C42.3013 7.5358 42.3111 7.48642 42.321 7.41728L42.7655 4.73086C42.7951 4.58272 42.8148 4.43457 42.8148 4.27654C42.8148 3.6642 42.5482 2.93333 41.2938 2.93333C40.8296 2.93333 40.4247 3.06173 40.0889 3.30864C39.9605 3.40741 39.842 3.50617 39.7334 3.60494L40.3161 0L38.6173 0.128395C38.4593 0.128395 38.3704 0.128395 38.3111 0.187654C38.242 0.237037 38.2222 0.325926 38.1926 0.454321C38.1729 0.572839 38.163 0.641975 38.163 0.681481V0.849383H38.3309C38.7358 0.849383 38.8741 0.879012 38.9235 0.898765C38.9432 0.898765 38.9827 0.918518 38.9827 1.03704C38.9827 1.08642 38.9729 1.17531 38.9531 1.3037L37.9457 7.31852C37.9062 7.57531 37.8371 7.62469 37.8272 7.62469C37.8074 7.63457 37.6889 7.68395 37.1259 7.68395H36.9877L36.879 8.37531H37.0766C37.8667 8.34568 38.3013 8.3358 38.3901 8.3358C38.5087 8.3358 38.9136 8.34568 39.6148 8.36543L39.7531 7.67407C39.3679 7.67407 39.2099 7.65432 39.1408 7.63457C39.1111 7.63457 39.0914 7.62469 39.0914 7.56543C39.0914 7.55555 39.0914 7.51605 39.1111 7.44691L39.2 6.88395C39.3087 6.20247 39.3877 5.68889 39.4469 5.35309C39.5358 4.78025 39.763 4.31605 40.1284 3.97037C40.4642 3.6642 40.8099 3.51605 41.1852 3.51605C41.442 3.51605 41.7087 3.58518 41.7087 4.12839C41.7087 4.17778 41.6988 4.36543 41.5803 5.06667L41.1852 7.38765C41.1655 7.52593 41.1259 7.61481 41.0766 7.63457C41.0272 7.65432 40.8692 7.68395 40.4148 7.68395L40.3062 8.37531H40.3259C41.1062 8.35555 41.5408 8.34568 41.6296 8.34568C41.7482 8.34568 42.1729 8.35555 42.9136 8.37531H43.0519L43.1803 7.68395H42.9827V7.68395Z" fill="#C2D6C2"/>
</g>
<defs>
<clipPath id="clip0_272_674">
<rect width="71.1111" height="16" fill="white"/>
</clipPath>
</defs>
</svg>
