<svg width="341" height="24" viewBox="0 0 341 24" fill="none" xmlns="http://www.w3.org/2000/svg">
<path d="M0.664 14.472C0.664 13.768 0.784 12.968 1.024 12.072L2.68 5.52C3.032 4.128 3.264 3.2 3.376 2.736C3.232 2.72 3.056 2.712 2.848 2.712C2.656 2.712 2.504 2.712 2.392 2.712C2.28 2.696 2.16 2.672 2.032 2.64C1.92 2.608 1.84 2.56 1.792 2.496C1.744 2.416 1.72 2.312 1.72 2.184C1.72 1.864 1.848 1.672 2.104 1.608C2.376 1.528 3.016 1.464 4.024 1.416C4.584 1.384 5.04 1.36 5.392 1.344H5.584C5.952 1.344 6.136 1.496 6.136 1.8C6.136 1.96 6.112 2.112 6.064 2.256L4.696 7.752C5.528 7.288 6.32 7.056 7.072 7.056C7.408 7.056 7.736 7.088 8.056 7.152C8.376 7.216 8.712 7.344 9.064 7.536C9.416 7.712 9.728 7.944 10 8.232C10.272 8.504 10.488 8.872 10.648 9.336C10.824 9.8 10.912 10.328 10.912 10.92C10.912 12.04 10.664 13.152 10.168 14.256C9.672 15.344 8.904 16.288 7.864 17.088C6.84 17.872 5.68 18.264 4.384 18.264C3.264 18.264 2.36 17.936 1.672 17.28C1 16.624 0.664 15.688 0.664 14.472ZM2.968 15.528C2.968 16.2 3.112 16.68 3.4 16.968C3.704 17.24 4.048 17.376 4.432 17.376C4.864 17.376 5.28 17.232 5.68 16.944C6.08 16.64 6.392 16.304 6.616 15.936C7.016 15.296 7.4 14.248 7.768 12.792C8.136 11.32 8.32 10.272 8.32 9.648C8.32 9.04 8.176 8.608 7.888 8.352C7.616 8.08 7.304 7.944 6.952 7.944C6.36 7.944 5.8 8.152 5.272 8.568C4.744 8.968 4.4 9.328 4.24 9.648C4.192 9.776 4.072 10.192 3.88 10.896C3.704 11.584 3.504 12.424 3.28 13.416C3.072 14.408 2.968 15.112 2.968 15.528ZM15.2854 11.976C15.2854 7.704 16.7174 4.144 19.5814 1.296C20.4934 0.431999 21.1094 -1.43051e-06 21.4294 -1.43051e-06C21.7174 -1.43051e-06 21.8614 0.111999 21.8614 0.335999C21.8614 0.415999 21.7334 0.584 21.4774 0.839999C18.9014 3.432 17.6134 7.152 17.6134 12C17.6134 14.304 17.9174 16.376 18.5254 18.216C19.1974 20.28 20.2854 22.008 21.7894 23.4C21.7894 23.4 21.7974 23.424 21.8134 23.472C21.8454 23.536 21.8614 23.592 21.8614 23.64C21.8614 23.864 21.7174 23.976 21.4294 23.976C21.2534 23.976 20.9414 23.808 20.4934 23.472C20.0614 23.152 19.5254 22.64 18.8854 21.936C18.2454 21.232 17.6854 20.456 17.2054 19.608C15.9254 17.352 15.2854 14.808 15.2854 11.976ZM25.0118 16.128C25.0118 15.552 25.1878 15.104 25.5398 14.784C25.9078 14.448 26.3078 14.28 26.7398 14.28C27.0598 14.28 27.3318 14.384 27.5558 14.592C27.7958 14.784 27.9158 15.048 27.9158 15.384C27.9158 16.152 27.5078 16.688 26.6918 16.992C26.9958 17.248 27.3238 17.376 27.6758 17.376C28.2678 17.376 28.7478 17.008 29.1158 16.272C29.3398 15.872 29.6918 14.672 30.1718 12.672C30.6678 10.672 30.9158 9.488 30.9158 9.12C30.9158 8.704 30.7958 8.408 30.5558 8.232C30.3158 8.04 30.0358 7.944 29.7158 7.944C29.1238 7.944 28.5398 8.192 27.9638 8.688C27.4038 9.184 26.9878 9.808 26.7158 10.56C26.6198 10.848 26.5318 11.032 26.4518 11.112C26.3878 11.176 26.2438 11.216 26.0198 11.232H25.8998C25.4838 11.232 25.2758 11.104 25.2758 10.848C25.2758 10.656 25.3718 10.368 25.5638 9.984C25.7558 9.584 26.0278 9.16 26.3798 8.712C26.7318 8.264 27.2198 7.88 27.8438 7.56C28.4678 7.224 29.1398 7.056 29.8598 7.056C31.1718 7.056 32.1558 7.488 32.8118 8.352C33.6438 7.488 34.4678 7.056 35.2838 7.056C35.9718 7.056 36.5798 7.248 37.1078 7.632C37.6358 8.016 37.8998 8.544 37.8998 9.216C37.8998 9.792 37.7158 10.248 37.3478 10.584C36.9958 10.904 36.6038 11.064 36.1718 11.064C35.8358 11.064 35.5558 10.96 35.3318 10.752C35.1078 10.544 34.9958 10.272 34.9958 9.936C34.9958 9.168 35.4038 8.632 36.2198 8.328C35.9158 8.072 35.5878 7.944 35.2358 7.944C35.0118 7.944 34.8038 7.992 34.6118 8.088C34.4198 8.184 34.2438 8.36 34.0838 8.616C33.9238 8.872 33.7878 9.12 33.6758 9.36C33.5638 9.584 33.4358 9.928 33.2918 10.392C33.1638 10.856 33.0598 11.248 32.9798 11.568C32.8998 11.888 32.7798 12.368 32.6198 13.008C32.4758 13.648 32.3558 14.152 32.2598 14.52C32.0678 15.288 31.9718 15.848 31.9718 16.2C31.9718 16.616 32.0918 16.92 32.3318 17.112C32.5878 17.288 32.8758 17.376 33.1958 17.376C33.7878 17.376 34.3638 17.128 34.9238 16.632C35.4998 16.136 35.9238 15.52 36.1958 14.784C36.2118 14.752 36.2278 14.704 36.2438 14.64C36.2598 14.576 36.2758 14.536 36.2918 14.52C36.3078 14.488 36.3238 14.448 36.3398 14.4C36.3558 14.352 36.3638 14.32 36.3638 14.304C36.3798 14.288 36.3958 14.264 36.4118 14.232C36.4438 14.2 36.4758 14.184 36.5078 14.184C36.5398 14.168 36.5718 14.152 36.6038 14.136C36.6358 14.12 36.6678 14.112 36.6998 14.112C36.7478 14.112 36.8038 14.112 36.8678 14.112H37.0118C37.4278 14.112 37.6358 14.232 37.6358 14.472C37.6358 15.064 37.1958 15.848 36.3158 16.824C35.4358 17.784 34.3558 18.264 33.0758 18.264C31.6838 18.264 30.6838 17.832 30.0758 16.968H30.0518C29.3478 17.832 28.5318 18.264 27.6038 18.264C26.9318 18.264 26.3318 18.08 25.8038 17.712C25.2758 17.328 25.0118 16.8 25.0118 16.128ZM40.3135 23.64C40.3135 23.56 40.4415 23.392 40.6975 23.136C43.2735 20.544 44.5615 16.824 44.5615 11.976C44.5615 7.192 43.2815 3.496 40.7215 0.887999C40.4495 0.631999 40.3135 0.447999 40.3135 0.335999C40.3135 0.111999 40.4575 -1.43051e-06 40.7455 -1.43051e-06C40.9215 -1.43051e-06 41.2255 0.167999 41.6575 0.503999C42.1055 0.823999 42.6495 1.336 43.2895 2.04C43.9295 2.744 44.4895 3.52 44.9695 4.368C46.2495 6.624 46.8895 9.168 46.8895 12C46.8895 16.272 45.4575 19.832 42.5935 22.68C41.6815 23.544 41.0655 23.976 40.7455 23.976C40.4575 23.976 40.3135 23.864 40.3135 23.64ZM59.7074 7.584L60.2114 1.8H76.3634L76.8674 7.584H75.7394C75.6754 6.912 75.6194 6.4 75.5714 6.048C75.5234 5.68 75.4114 5.264 75.2354 4.8C75.0754 4.32 74.8674 3.968 74.6114 3.744C74.3554 3.52 73.9954 3.328 73.5314 3.168C73.0674 3.008 72.4994 2.928 71.8274 2.928H70.0034V16.872H73.6754V18C72.8114 17.952 71.0194 17.928 68.2994 17.928C65.5794 17.928 63.7874 17.952 62.9234 18V16.872H66.5954V2.928H64.7474C64.0754 2.928 63.4994 3.016 63.0194 3.192C62.5554 3.352 62.1954 3.544 61.9394 3.768C61.6834 3.992 61.4754 4.336 61.3154 4.8C61.1554 5.264 61.0434 5.68 60.9794 6.048C60.9314 6.4 60.8834 6.912 60.8354 7.584H59.7074ZM76.6778 8.52V7.392L81.0698 7.2V15.384C81.0698 16.12 81.1738 16.624 81.3818 16.896C81.5898 17.152 82.1258 17.28 82.9898 17.28C83.8698 17.28 84.5818 16.984 85.1258 16.392C85.6858 15.8 85.9658 15.016 85.9658 14.04V9.456C85.9658 9.008 85.8778 8.744 85.7018 8.664C85.5418 8.568 85.0778 8.52 84.3098 8.52V7.392L88.7018 7.2V15.936C88.7018 16.384 88.7818 16.656 88.9418 16.752C89.1178 16.832 89.5898 16.872 90.3578 16.872V18L86.1098 18.144V16.272C85.3738 17.52 84.2218 18.144 82.6538 18.144C81.2938 18.144 80.2298 17.928 79.4618 17.496C78.7098 17.048 78.3338 16.232 78.3338 15.048V9.456C78.3338 9.008 78.2458 8.744 78.0698 8.664C77.9098 8.568 77.4458 8.52 76.6778 8.52ZM91.7905 18V16.872H93.4465V9.456C93.4465 9.008 93.3585 8.744 93.1825 8.664C93.0225 8.568 92.5585 8.52 91.7905 8.52V7.392L95.7745 7.2V9.912C96.4305 8.104 97.4945 7.2 98.9665 7.2C99.6385 7.2 100.23 7.376 100.742 7.728C101.254 8.08 101.51 8.56 101.51 9.168C101.51 9.616 101.358 9.976 101.054 10.248C100.766 10.504 100.43 10.632 100.046 10.632C99.6625 10.632 99.3185 10.504 99.0145 10.248C98.7265 9.992 98.5825 9.632 98.5825 9.168C98.5825 8.736 98.7345 8.368 99.0385 8.064C98.4785 8.064 97.9905 8.224 97.5745 8.544C97.1585 8.848 96.8465 9.256 96.6385 9.768C96.4305 10.264 96.2785 10.752 96.1825 11.232C96.0865 11.712 96.0385 12.192 96.0385 12.672V16.872H98.1265V18C97.5505 17.952 96.4465 17.928 94.8145 17.928C94.4785 17.928 93.4705 17.952 91.7905 18ZM103.326 18V16.872H104.982V9.456C104.982 9.008 104.894 8.744 104.718 8.664C104.558 8.568 104.094 8.52 103.326 8.52V7.392L107.454 7.2V9.792C108.334 8.064 109.734 7.2 111.654 7.2C112.886 7.2 113.806 7.472 114.414 8.016C115.038 8.544 115.35 9.424 115.35 10.656V16.872H117.006V18C115.662 17.952 114.654 17.928 113.982 17.928C113.31 17.928 112.302 17.952 110.958 18V16.872H112.614V10.392C112.614 9.528 112.502 8.928 112.278 8.592C112.054 8.24 111.726 8.064 111.294 8.064C110.414 8.064 109.598 8.4 108.846 9.072C108.094 9.728 107.718 10.656 107.718 11.856V16.872H109.374V18C108.03 17.952 107.022 17.928 106.35 17.928C105.678 17.928 104.67 17.952 103.326 18ZM118.319 15.408C118.319 13.12 120.919 11.864 126.119 11.64V10.824C126.119 8.936 125.239 7.992 123.479 7.992C122.855 7.992 122.279 8.048 121.751 8.16C122.103 8.4 122.279 8.792 122.279 9.336C122.279 9.816 122.127 10.192 121.823 10.464C121.519 10.72 121.167 10.848 120.767 10.848C120.399 10.848 120.055 10.72 119.735 10.464C119.431 10.192 119.279 9.816 119.279 9.336C119.279 7.864 120.711 7.128 123.575 7.128C125.303 7.128 126.615 7.464 127.511 8.136C128.407 8.808 128.855 9.704 128.855 10.824V15.984C128.855 16.208 128.871 16.368 128.903 16.464C128.935 16.56 129.063 16.656 129.287 16.752C129.511 16.832 129.855 16.872 130.319 16.872C130.463 16.872 130.567 16.88 130.631 16.896C130.695 16.912 130.759 16.96 130.823 17.04C130.903 17.12 130.943 17.248 130.943 17.424C130.943 17.68 130.887 17.84 130.775 17.904C130.663 17.968 130.463 18 130.175 18H129.023C128.431 18 127.951 17.944 127.583 17.832C127.215 17.72 126.959 17.552 126.815 17.328C126.687 17.104 126.607 16.92 126.575 16.776C126.543 16.616 126.527 16.408 126.527 16.152C125.839 17.48 124.647 18.144 122.951 18.144C122.471 18.144 121.991 18.104 121.511 18.024C121.031 17.96 120.535 17.84 120.023 17.664C119.511 17.472 119.095 17.184 118.775 16.8C118.471 16.416 118.319 15.952 118.319 15.408ZM121.127 15.384C121.127 15.912 121.335 16.36 121.751 16.728C122.183 17.096 122.703 17.28 123.311 17.28C123.519 17.28 123.751 17.248 124.007 17.184C124.279 17.12 124.583 17.008 124.919 16.848C125.271 16.688 125.559 16.416 125.783 16.032C126.007 15.648 126.119 15.192 126.119 14.664V12.384C125.767 12.4 125.431 12.432 125.111 12.48C124.807 12.512 124.391 12.6 123.863 12.744C123.335 12.872 122.887 13.032 122.519 13.224C122.151 13.416 121.823 13.704 121.535 14.088C121.263 14.456 121.127 14.888 121.127 15.384ZM131.845 18V16.872H133.501V9.456C133.501 9.008 133.413 8.744 133.237 8.664C133.077 8.568 132.613 8.52 131.845 8.52V7.392L135.829 7.2V9.912C136.485 8.104 137.549 7.2 139.021 7.2C139.693 7.2 140.285 7.376 140.797 7.728C141.309 8.08 141.565 8.56 141.565 9.168C141.565 9.616 141.413 9.976 141.109 10.248C140.821 10.504 140.485 10.632 140.101 10.632C139.717 10.632 139.373 10.504 139.069 10.248C138.781 9.992 138.637 9.632 138.637 9.168C138.637 8.736 138.789 8.368 139.093 8.064C138.533 8.064 138.045 8.224 137.629 8.544C137.213 8.848 136.901 9.256 136.693 9.768C136.485 10.264 136.333 10.752 136.237 11.232C136.141 11.712 136.093 12.192 136.093 12.672V16.872H138.181V18C137.605 17.952 136.501 17.928 134.869 17.928C134.533 17.928 133.525 17.952 131.845 18ZM143.069 12.768C143.069 11.12 143.605 9.768 144.677 8.712C145.765 7.656 147.269 7.128 149.189 7.128C151.093 7.128 152.589 7.656 153.677 8.712C154.765 9.768 155.309 11.12 155.309 12.768C155.309 14.32 154.773 15.608 153.701 16.632C152.629 17.64 151.125 18.144 149.189 18.144C147.253 18.144 145.749 17.64 144.677 16.632C143.605 15.608 143.069 14.32 143.069 12.768ZM146.141 12.504C146.141 12.984 146.141 13.352 146.141 13.608C146.157 13.848 146.189 14.192 146.237 14.64C146.301 15.072 146.397 15.408 146.525 15.648C146.653 15.888 146.821 16.144 147.029 16.416C147.253 16.688 147.541 16.888 147.893 17.016C148.261 17.128 148.693 17.184 149.189 17.184C149.685 17.184 150.109 17.128 150.461 17.016C150.829 16.888 151.117 16.688 151.325 16.416C151.549 16.144 151.725 15.888 151.853 15.648C151.981 15.408 152.069 15.072 152.117 14.64C152.181 14.192 152.213 13.848 152.213 13.608C152.229 13.352 152.237 12.984 152.237 12.504C152.237 10.856 152.069 9.76 151.733 9.216C151.221 8.4 150.373 7.992 149.189 7.992C147.909 7.992 147.029 8.456 146.549 9.384C146.277 9.928 146.141 10.968 146.141 12.504ZM157.186 8.52V7.392L161.578 7.2V15.384C161.578 16.12 161.682 16.624 161.89 16.896C162.098 17.152 162.634 17.28 163.498 17.28C164.378 17.28 165.09 16.984 165.634 16.392C166.194 15.8 166.474 15.016 166.474 14.04V9.456C166.474 9.008 166.386 8.744 166.21 8.664C166.05 8.568 165.586 8.52 164.818 8.52V7.392L169.21 7.2V15.936C169.21 16.384 169.29 16.656 169.45 16.752C169.626 16.832 170.098 16.872 170.866 16.872V18L166.618 18.144V16.272C165.882 17.52 164.73 18.144 163.162 18.144C161.802 18.144 160.738 17.928 159.97 17.496C159.218 17.048 158.842 16.232 158.842 15.048V9.456C158.842 9.008 158.754 8.744 158.578 8.664C158.418 8.568 157.954 8.52 157.186 8.52ZM172.49 18V16.872H174.146V9.456C174.146 9.008 174.058 8.744 173.882 8.664C173.722 8.568 173.258 8.52 172.49 8.52V7.392L176.618 7.2V9.792C177.498 8.064 178.898 7.2 180.818 7.2C182.05 7.2 182.97 7.472 183.578 8.016C184.202 8.544 184.514 9.424 184.514 10.656V16.872H186.17V18C184.826 17.952 183.818 17.928 183.146 17.928C182.474 17.928 181.466 17.952 180.122 18V16.872H181.778V10.392C181.778 9.528 181.666 8.928 181.442 8.592C181.218 8.24 180.89 8.064 180.458 8.064C179.578 8.064 178.762 8.4 178.01 9.072C177.258 9.728 176.882 10.656 176.882 11.856V16.872H178.538V18C177.194 17.952 176.186 17.928 175.514 17.928C174.842 17.928 173.834 17.952 172.49 18ZM187.627 12.696C187.627 11.032 188.187 9.704 189.307 8.712C190.427 7.704 191.875 7.2 193.651 7.2C194.883 7.2 195.963 7.56 196.891 8.28V3.6C196.891 3.152 196.803 2.888 196.627 2.808C196.467 2.712 196.003 2.664 195.235 2.664V1.536L199.483 1.344V15.936C199.483 16.384 199.563 16.656 199.723 16.752C199.899 16.832 200.371 16.872 201.139 16.872V18L196.747 18.144V16.968C195.771 17.752 194.651 18.144 193.387 18.144C191.627 18.144 190.227 17.64 189.187 16.632C188.147 15.608 187.627 14.296 187.627 12.696ZM190.699 12.696C190.699 13.096 190.699 13.416 190.699 13.656C190.715 13.88 190.747 14.2 190.795 14.616C190.843 15.032 190.931 15.376 191.059 15.648C191.187 15.904 191.355 16.176 191.563 16.464C191.771 16.736 192.051 16.944 192.403 17.088C192.755 17.216 193.163 17.28 193.627 17.28C194.859 17.28 195.899 16.696 196.747 15.528V9.528C196.011 8.552 195.059 8.064 193.891 8.064C192.755 8.064 191.899 8.48 191.323 9.312C190.907 9.936 190.699 11.064 190.699 12.696ZM212.143 18V16.872H214.735V2.664H212.143V1.536H222.463C224.895 1.536 226.895 2.288 228.463 3.792C230.031 5.296 230.815 7.336 230.815 9.912C230.815 12.424 230.031 14.4 228.463 15.84C226.911 17.28 224.919 18 222.487 18H212.143ZM217.999 16.872H221.503C223.711 16.872 225.287 16.2 226.231 14.856C226.615 14.312 226.887 13.672 227.047 12.936C227.207 12.2 227.287 11.184 227.287 9.888C227.287 7.504 226.943 5.808 226.255 4.8C225.263 3.376 223.679 2.664 221.503 2.664H217.999V16.872ZM233.116 15.408C233.116 13.12 235.716 11.864 240.916 11.64V10.824C240.916 8.936 240.036 7.992 238.276 7.992C237.652 7.992 237.076 8.048 236.548 8.16C236.9 8.4 237.076 8.792 237.076 9.336C237.076 9.816 236.924 10.192 236.62 10.464C236.316 10.72 235.964 10.848 235.564 10.848C235.196 10.848 234.852 10.72 234.532 10.464C234.228 10.192 234.076 9.816 234.076 9.336C234.076 7.864 235.508 7.128 238.372 7.128C240.1 7.128 241.412 7.464 242.308 8.136C243.204 8.808 243.652 9.704 243.652 10.824V15.984C243.652 16.208 243.668 16.368 243.7 16.464C243.732 16.56 243.86 16.656 244.084 16.752C244.308 16.832 244.652 16.872 245.116 16.872C245.26 16.872 245.364 16.88 245.428 16.896C245.492 16.912 245.556 16.96 245.62 17.04C245.7 17.12 245.74 17.248 245.74 17.424C245.74 17.68 245.684 17.84 245.572 17.904C245.46 17.968 245.26 18 244.972 18H243.82C243.228 18 242.748 17.944 242.38 17.832C242.012 17.72 241.756 17.552 241.612 17.328C241.484 17.104 241.404 16.92 241.372 16.776C241.34 16.616 241.324 16.408 241.324 16.152C240.636 17.48 239.444 18.144 237.748 18.144C237.268 18.144 236.788 18.104 236.308 18.024C235.828 17.96 235.332 17.84 234.82 17.664C234.308 17.472 233.892 17.184 233.572 16.8C233.268 16.416 233.116 15.952 233.116 15.408ZM235.924 15.384C235.924 15.912 236.132 16.36 236.548 16.728C236.98 17.096 237.5 17.28 238.108 17.28C238.316 17.28 238.548 17.248 238.804 17.184C239.076 17.12 239.38 17.008 239.716 16.848C240.068 16.688 240.356 16.416 240.58 16.032C240.804 15.648 240.916 15.192 240.916 14.664V12.384C240.564 12.4 240.228 12.432 239.908 12.48C239.604 12.512 239.188 12.6 238.66 12.744C238.132 12.872 237.684 13.032 237.316 13.224C236.948 13.416 236.62 13.704 236.332 14.088C236.06 14.456 235.924 14.888 235.924 15.384ZM246.666 17.472V14.856C246.666 14.552 246.69 14.36 246.738 14.28C246.802 14.2 246.97 14.16 247.242 14.16C247.434 14.16 247.562 14.176 247.626 14.208C247.706 14.24 247.77 14.336 247.818 14.496C247.914 14.832 248.018 15.128 248.13 15.384C248.258 15.64 248.442 15.936 248.682 16.272C248.938 16.592 249.282 16.84 249.714 17.016C250.162 17.192 250.682 17.28 251.274 17.28C253.098 17.28 254.01 16.68 254.01 15.48C254.01 15.144 253.922 14.856 253.746 14.616C253.57 14.376 253.314 14.192 252.978 14.064C252.642 13.92 252.362 13.824 252.138 13.776C251.93 13.712 251.666 13.656 251.346 13.608C250.562 13.464 250.018 13.36 249.714 13.296C249.41 13.232 249.058 13.12 248.658 12.96C248.274 12.784 247.93 12.56 247.626 12.288C246.986 11.744 246.666 11.072 246.666 10.272C246.666 9.776 246.754 9.336 246.93 8.952C247.106 8.568 247.346 8.272 247.65 8.064C247.97 7.84 248.282 7.664 248.586 7.536C248.89 7.392 249.234 7.296 249.618 7.248C250.018 7.2 250.306 7.168 250.482 7.152C250.674 7.136 250.874 7.128 251.082 7.128C252.09 7.128 252.898 7.28 253.506 7.584C254.13 7.28 254.49 7.128 254.586 7.128C254.778 7.128 254.898 7.176 254.946 7.272C254.994 7.352 255.018 7.528 255.018 7.8V9.72C255.018 10.024 254.986 10.216 254.922 10.296C254.874 10.36 254.714 10.392 254.442 10.392C254.202 10.392 254.05 10.36 253.986 10.296C253.938 10.232 253.906 10.104 253.89 9.912C253.762 8.568 252.818 7.896 251.058 7.896C249.266 7.896 248.37 8.392 248.37 9.384C248.37 9.656 248.442 9.888 248.586 10.08C248.746 10.272 248.978 10.424 249.282 10.536C249.602 10.648 249.85 10.728 250.026 10.776C250.202 10.824 250.466 10.88 250.818 10.944C251.858 11.12 252.602 11.28 253.05 11.424C253.514 11.552 253.962 11.776 254.394 12.096C255.274 12.8 255.714 13.648 255.714 14.64C255.714 15.2 255.626 15.696 255.45 16.128C255.274 16.544 255.026 16.872 254.706 17.112C254.402 17.352 254.098 17.552 253.794 17.712C253.49 17.856 253.138 17.952 252.738 18C252.338 18.064 252.05 18.104 251.874 18.12C251.698 18.136 251.498 18.144 251.274 18.144C250.122 18.144 249.178 17.888 248.442 17.376L247.818 17.784C247.482 18.024 247.242 18.144 247.098 18.144C246.906 18.144 246.786 18.096 246.738 18C246.69 17.904 246.666 17.728 246.666 17.472ZM257.709 18V16.872H259.365V3.6C259.365 3.152 259.277 2.888 259.101 2.808C258.941 2.712 258.477 2.664 257.709 2.664V1.536L261.957 1.344V9.504H261.981C262.877 7.968 264.229 7.2 266.037 7.2C267.269 7.2 268.189 7.472 268.797 8.016C269.421 8.544 269.733 9.424 269.733 10.656V16.872H271.389V18C270.045 17.952 269.037 17.928 268.365 17.928C267.693 17.928 266.685 17.952 265.341 18V16.872H266.997V10.392C266.997 9.528 266.885 8.928 266.661 8.592C266.437 8.24 266.109 8.064 265.677 8.064C264.797 8.064 263.981 8.4 263.229 9.072C262.477 9.728 262.101 10.656 262.101 11.856V16.872H263.757V18C262.413 17.952 261.405 17.928 260.733 17.928C260.061 17.928 259.053 17.952 257.709 18ZM272.048 2.664V1.536L276.296 1.344V8.376C277.24 7.592 278.416 7.2 279.824 7.2C281.552 7.2 282.936 7.704 283.976 8.712C285.032 9.72 285.56 11.032 285.56 12.648C285.56 14.312 285 15.648 283.88 16.656C282.76 17.648 281.304 18.144 279.512 18.144C278.168 18.144 277 17.648 276.008 16.656L274.832 18H273.704V3.6C273.704 3.152 273.616 2.888 273.44 2.808C273.28 2.712 272.816 2.664 272.048 2.664ZM276.44 15.624C277.176 16.728 278.128 17.28 279.296 17.28C280.416 17.28 281.272 16.864 281.864 16.032C282.28 15.408 282.488 14.28 282.488 12.648C282.488 12.248 282.48 11.936 282.464 11.712C282.464 11.472 282.44 11.144 282.392 10.728C282.344 10.312 282.256 9.976 282.128 9.72C282 9.448 281.832 9.176 281.624 8.904C281.416 8.616 281.136 8.408 280.784 8.28C280.432 8.136 280.024 8.064 279.56 8.064C278.936 8.064 278.344 8.208 277.784 8.496C277.24 8.784 276.792 9.152 276.44 9.6V15.624ZM288.006 12.768C288.006 11.12 288.542 9.768 289.614 8.712C290.702 7.656 292.206 7.128 294.126 7.128C296.03 7.128 297.526 7.656 298.614 8.712C299.702 9.768 300.246 11.12 300.246 12.768C300.246 14.32 299.71 15.608 298.638 16.632C297.566 17.64 296.062 18.144 294.126 18.144C292.19 18.144 290.686 17.64 289.614 16.632C288.542 15.608 288.006 14.32 288.006 12.768ZM291.078 12.504C291.078 12.984 291.078 13.352 291.078 13.608C291.094 13.848 291.126 14.192 291.174 14.64C291.238 15.072 291.334 15.408 291.462 15.648C291.59 15.888 291.758 16.144 291.966 16.416C292.19 16.688 292.478 16.888 292.83 17.016C293.198 17.128 293.63 17.184 294.126 17.184C294.622 17.184 295.046 17.128 295.398 17.016C295.766 16.888 296.054 16.688 296.262 16.416C296.486 16.144 296.662 15.888 296.79 15.648C296.918 15.408 297.006 15.072 297.054 14.64C297.118 14.192 297.15 13.848 297.15 13.608C297.166 13.352 297.174 12.984 297.174 12.504C297.174 10.856 297.006 9.76 296.67 9.216C296.158 8.4 295.31 7.992 294.126 7.992C292.846 7.992 291.966 8.456 291.486 9.384C291.214 9.928 291.078 10.968 291.078 12.504ZM301.811 15.408C301.811 13.12 304.411 11.864 309.611 11.64V10.824C309.611 8.936 308.731 7.992 306.971 7.992C306.347 7.992 305.771 8.048 305.243 8.16C305.595 8.4 305.771 8.792 305.771 9.336C305.771 9.816 305.619 10.192 305.315 10.464C305.011 10.72 304.659 10.848 304.259 10.848C303.891 10.848 303.547 10.72 303.227 10.464C302.923 10.192 302.771 9.816 302.771 9.336C302.771 7.864 304.203 7.128 307.067 7.128C308.795 7.128 310.107 7.464 311.003 8.136C311.899 8.808 312.347 9.704 312.347 10.824V15.984C312.347 16.208 312.363 16.368 312.395 16.464C312.427 16.56 312.555 16.656 312.779 16.752C313.003 16.832 313.347 16.872 313.811 16.872C313.955 16.872 314.059 16.88 314.123 16.896C314.187 16.912 314.251 16.96 314.315 17.04C314.395 17.12 314.435 17.248 314.435 17.424C314.435 17.68 314.379 17.84 314.267 17.904C314.155 17.968 313.955 18 313.667 18H312.515C311.923 18 311.443 17.944 311.075 17.832C310.707 17.72 310.451 17.552 310.307 17.328C310.179 17.104 310.099 16.92 310.067 16.776C310.035 16.616 310.019 16.408 310.019 16.152C309.331 17.48 308.139 18.144 306.443 18.144C305.963 18.144 305.483 18.104 305.003 18.024C304.523 17.96 304.027 17.84 303.515 17.664C303.003 17.472 302.587 17.184 302.267 16.8C301.963 16.416 301.811 15.952 301.811 15.408ZM304.619 15.384C304.619 15.912 304.827 16.36 305.243 16.728C305.675 17.096 306.195 17.28 306.803 17.28C307.011 17.28 307.243 17.248 307.499 17.184C307.771 17.12 308.075 17.008 308.411 16.848C308.763 16.688 309.051 16.416 309.275 16.032C309.499 15.648 309.611 15.192 309.611 14.664V12.384C309.259 12.4 308.923 12.432 308.603 12.48C308.299 12.512 307.883 12.6 307.355 12.744C306.827 12.872 306.379 13.032 306.011 13.224C305.643 13.416 305.315 13.704 305.027 14.088C304.755 14.456 304.619 14.888 304.619 15.384ZM315.337 18V16.872H316.993V9.456C316.993 9.008 316.905 8.744 316.729 8.664C316.569 8.568 316.105 8.52 315.337 8.52V7.392L319.321 7.2V9.912C319.977 8.104 321.041 7.2 322.513 7.2C323.185 7.2 323.777 7.376 324.289 7.728C324.801 8.08 325.057 8.56 325.057 9.168C325.057 9.616 324.905 9.976 324.601 10.248C324.313 10.504 323.977 10.632 323.593 10.632C323.209 10.632 322.865 10.504 322.561 10.248C322.273 9.992 322.129 9.632 322.129 9.168C322.129 8.736 322.281 8.368 322.585 8.064C322.025 8.064 321.537 8.224 321.121 8.544C320.705 8.848 320.393 9.256 320.185 9.768C319.977 10.264 319.825 10.752 319.729 11.232C319.633 11.712 319.585 12.192 319.585 12.672V16.872H321.673V18C321.097 17.952 319.993 17.928 318.361 17.928C318.025 17.928 317.017 17.952 315.337 18ZM326.705 12.696C326.705 11.032 327.265 9.704 328.385 8.712C329.505 7.704 330.953 7.2 332.729 7.2C333.961 7.2 335.041 7.56 335.969 8.28V3.6C335.969 3.152 335.881 2.888 335.705 2.808C335.545 2.712 335.081 2.664 334.313 2.664V1.536L338.561 1.344V15.936C338.561 16.384 338.641 16.656 338.801 16.752C338.977 16.832 339.449 16.872 340.217 16.872V18L335.825 18.144V16.968C334.849 17.752 333.729 18.144 332.465 18.144C330.705 18.144 329.305 17.64 328.265 16.632C327.225 15.608 326.705 14.296 326.705 12.696ZM329.777 12.696C329.777 13.096 329.777 13.416 329.777 13.656C329.793 13.88 329.825 14.2 329.873 14.616C329.921 15.032 330.009 15.376 330.137 15.648C330.265 15.904 330.433 16.176 330.641 16.464C330.849 16.736 331.129 16.944 331.481 17.088C331.833 17.216 332.241 17.28 332.705 17.28C333.937 17.28 334.977 16.696 335.825 15.528V9.528C335.089 8.552 334.137 8.064 332.969 8.064C331.833 8.064 330.977 8.48 330.401 9.312C329.985 9.936 329.777 11.064 329.777 12.696Z" fill="#C2D6C2"/>
</svg>
